<svg width="670" height="295" viewBox="0 0 670 295" fill="none" xmlns="http://www.w3.org/2000/svg">
<path d="M474.31 43.023L475.514 49.305L483.001 49.735L486.272 37.429L487.476 32.524L481.62 28.932L474.31 43.023Z" fill="#FAB38B"/>
<path opacity="0.27" d="M474.051 43.023C474.051 43.023 478.762 35.341 481.796 30.028C482.656 28.522 483.514 30.539 483.799 28.733C483.971 34.155 481.486 39.106 477.985 41.815C476.333 43.093 474.395 43.366 474.395 43.366L474.051 43.023Z" fill="#740D20"/>
<path d="M480.871 19.551C478.963 16.026 472.034 10.372 461.118 15.712C450.202 21.052 455.263 26.09 456.094 27.941L459.077 39.782L461.911 38.567C467.281 46.177 471.047 46.111 474.984 43.04C484.035 35.98 482.779 23.075 480.871 19.551Z" fill="#FAB38B"/>
<path d="M450.219 23.428C450.949 25.208 454.692 31.688 457.104 26.87C460.695 19.696 467.511 23.143 471.642 16.431C477.15 21.767 474.74 20.906 480.076 22.971C482.658 25.036 479.388 29.856 483.69 33.126C487.993 36.396 497.115 28.995 497.115 28.995C497.115 28.995 493.741 30.491 493.104 24.063C492.468 17.635 492.123 3.35 478.871 1.284C465.618 -0.781 456.152 1.628 452.021 8.513C447.89 15.398 448.794 19.953 450.219 23.428Z" fill="#740D20"/>
<path d="M483.523 23.112C483.377 24.61 482.044 25.706 480.546 25.56C479.048 25.414 477.952 24.081 478.098 22.583C478.244 21.085 479.577 19.989 481.075 20.135C482.574 20.282 483.67 21.614 483.523 23.112Z" fill="#FAB38B"/>
<path d="M481.84 22.498C481.061 23.249 480.31 24.029 479.589 24.836C479.433 25.01 479.69 25.269 479.846 25.093C480.567 24.286 481.318 23.506 482.097 22.755C482.266 22.593 482.009 22.336 481.84 22.498Z" fill="#740D20"/>
<path d="M464.629 41.811C464.863 42.261 465.816 42.228 466.758 41.739C467.7 41.25 468.274 40.488 468.04 40.038C467.806 39.588 467.298 40.345 466.357 40.835C465.414 41.325 464.395 41.361 464.629 41.811Z" fill="#740D20"/>
<path d="M459.85 32.248C460.78 30.618 462.509 29.74 464.374 29.929C464.645 29.956 464.73 29.538 464.457 29.51C463.461 29.409 462.468 29.553 461.57 30.006C460.671 30.459 459.963 31.192 459.466 32.062C459.329 32.301 459.714 32.486 459.85 32.248Z" fill="#740D20"/>
<path d="M461.718 32.096C462.53 31.664 461.86 30.401 461.046 30.834C460.234 31.266 460.904 32.529 461.718 32.096Z" fill="#740D20"/>
<path d="M463.717 27.64C463.891 27.48 464.055 27.286 464.085 27.052C464.141 26.612 463.701 26.256 463.269 26.155C462.706 26.024 462.116 26.161 461.573 26.358C460.813 26.633 460.096 27.027 459.45 27.513C458.731 28.054 457.855 28.919 457.836 29.893C457.82 30.689 458.207 30.748 458.866 30.485C459.655 30.17 460.334 29.556 461.07 29.138C461.945 28.64 462.963 28.332 463.717 27.64Z" fill="#740D20"/>
<path d="M624.997 176.097C621.621 173.494 618.69 171.162 614.9 169.212C608.545 165.943 602.051 165.563 594.935 166.229C591.828 166.52 587.694 166.922 584.608 166.458C578.101 165.481 574.764 158.749 569.921 154.295C561.184 159.091 550.76 164.97 541.783 169.3C547.32 175.416 552.857 181.532 558.394 187.648C560.35 189.808 562.328 191.989 564.721 193.652C568.952 196.592 574.184 196.958 579.33 197.209C584.476 197.46 591.39 197.293 596.541 197.209C621.657 196.8 644.975 208.559 661.186 227.746C664.975 221.297 656.775 193.542 653.11 192.791C644.725 191.074 640.507 187.361 637.849 185.964C633.42 183.637 628.959 179.152 624.997 176.097Z" fill="#FAB38B"/>
<path d="M653.385 192.784C645 191.067 640.782 187.354 638.124 185.957C633.696 183.629 629.235 179.145 625.273 176.089C621.897 173.486 618.966 171.154 615.176 169.204C608.821 165.935 602.327 165.555 595.211 166.221C592.477 166.477 588.947 166.818 586.036 166.58C585.093 174.674 582.062 182.071 577.012 188.479C574.883 191.181 572.484 193.635 569.938 195.935C573.008 196.827 576.323 197.042 579.606 197.202C584.752 197.453 591.666 197.286 596.817 197.202C621.933 196.793 645.251 208.552 661.462 227.739C665.251 221.29 657.051 193.535 653.385 192.784Z" fill="#EFEDED"/>
<path d="M648.634 191.013C648.634 191.013 652.076 189.177 654.83 188.948C657.584 188.719 664.01 187.112 664.239 193.308C664.468 199.504 664.239 210.52 667.452 220.387C670.665 230.255 670.435 236.681 666.993 236.222C663.551 235.763 662.403 226.584 656.666 221.764C655.519 213.502 658.731 209.601 653.453 202.487C648.175 195.373 648.634 191.013 648.634 191.013Z" fill="#171918"/>
<path d="M590.229 166.688C589.82 173.923 587.62 181.044 583.893 187.195C582.861 188.898 581.717 190.525 580.557 192.137C579.215 194.003 577.66 195.981 575.453 196.462" stroke="#F1D857" stroke-width="1.2988" stroke-miterlimit="10"/>
<path d="M496.484 146.034C496.484 146.034 458.619 185.047 454.947 202.488C451.275 219.929 473.765 223.601 487.534 236.223C501.303 248.845 524.711 255.73 531.366 267.433C543.988 266.745 545.824 263.991 546.283 255.041C544.677 253.205 539.169 247.697 539.169 247.697C539.169 247.697 538.48 245.861 529.531 237.829C520.581 229.797 516.221 209.143 498.321 203.176C505.894 195.144 523.565 174.031 523.565 174.031L496.484 146.034Z" fill="#FAB38B"/>
<path d="M538.939 247.123C538.939 247.123 538.25 245.287 529.301 237.255C520.584 229.432 516.216 209.643 499.458 203.104C494.931 206.07 490.17 208.642 485.14 210.67C476.651 214.093 467.852 215.686 458.954 216.105C465.685 223.005 478.341 227.431 487.305 235.648C501.074 248.27 524.482 255.154 531.137 266.858C543.759 266.17 545.595 263.416 546.054 254.466C544.447 252.631 538.939 247.123 538.939 247.123Z" fill="#EFEDED"/>
<path d="M463.863 220.265C470.81 219.994 477.777 218.861 484.259 216.253C490.742 213.645 496.736 209.509 501.073 203.864" stroke="#F1D857" stroke-width="1.2745" stroke-miterlimit="10"/>
<path d="M546.937 256.587C546.937 256.587 543.543 264.733 537.208 264.959C530.872 265.185 529.289 266.543 529.289 266.543C529.289 266.543 527.026 272.652 523.859 274.462C520.691 276.272 512.319 278.309 512.319 280.571C512.319 282.834 516.844 286.68 527.479 283.286C538.113 279.892 546.033 274.914 552.821 271.068C559.609 267.222 557.799 260.66 550.106 257.266C547.616 255.908 546.937 256.587 546.937 256.587Z" fill="#171918"/>
<path d="M488.136 152.729C484.147 157.285 480.158 161.841 476.17 166.397C481.08 167.906 484.699 171.946 488.658 175.219C495.924 181.228 505.038 184.971 514.43 185.804C516.603 185.997 522.417 175.637 530.678 166.602C534.895 172.54 541.14 175.816 545.996 178.736C546.609 179.104 548.825 180.626 549.611 180.285C556.652 177.225 561.487 174.816 568.187 171.069C573.46 168.12 578.732 165.171 584.005 162.221C572.317 154.728 564 142.174 561.657 128.489C561.013 124.724 557.014 122.049 554.775 118.955C553.906 119.903 551.827 119.826 550.644 120.332C534.454 127.262 521.171 128.328 504.226 133.125C498.676 134.696 498.869 136.268 496.681 140.919C494.601 145.338 491.326 149.085 488.136 152.729Z" fill="#171918"/>
<path d="M550.413 142.362C550.119 143.098 549.82 143.839 549.496 144.57L548.376 146.692L547.068 148.706L545.643 150.639C543.676 153.17 541.425 155.445 539.179 157.686C536.911 159.908 534.634 162.098 532.46 164.38L530.864 166.123L529.352 167.939L527.908 169.817C527.475 170.476 527.033 171.133 526.577 171.788C526.921 171.073 527.272 170.357 527.644 169.649L528.885 167.598L530.287 165.652L531.782 163.777C533.828 161.318 536.107 159.084 538.351 156.848C540.615 154.631 542.854 152.409 544.949 150.062L546.474 148.262L547.895 146.378L549.223 144.42C549.612 143.735 550.004 143.048 550.413 142.362Z" fill="#F1D857"/>
<path d="M479.872 167.926C488.879 158.032 498.193 147.584 501.517 134.624" stroke="#F1D857" stroke-width="1.3482" stroke-miterlimit="10"/>
<path d="M506.007 132.91C504.505 140.489 501.486 147.755 497.188 154.137C493.147 160.136 487.992 165.364 484.551 171.736" stroke="#F1D857" stroke-width="1.2902" stroke-miterlimit="10"/>
<path d="M471.022 97.409C468.103 99.61 467.316 100.647 464.126 102.432C461.914 103.669 458.168 104.906 455.635 104.842C452.571 104.764 449.859 106.145 446.812 105.805C445.869 105.7 444.903 105.574 444.068 105.123C442.623 104.342 441.842 102.75 440.701 101.569C438.676 99.472 435.542 98.757 432.639 99.017C429.735 99.277 426.985 100.389 424.286 101.488C425.056 104.892 425.826 108.295 426.596 111.699C426.794 112.575 427.011 113.489 427.596 114.17C428.023 114.668 428.613 114.997 429.21 115.269C434.494 117.671 439.197 118.123 444.964 117.464C455.286 116.286 468.477 120.224 478.813 119.185C482.049 118.86 486.097 116.983 488.796 115.169C492.539 112.653 492.494 105.363 494.304 101.231C488.745 98.743 482.805 96.373 476.715 96.374C474.499 96.374 472.792 96.074 471.022 97.409Z" fill="#FAB38B"/>
<path d="M525.747 50.285C524.329 47.12 525.121 43.396 526.487 40.208C527.852 37.02 529.769 34.048 530.67 30.699C519.096 26.214 498.292 28.49 486.96 33.556C486.099 33.556 486.888 33.597 485.325 32.523C483.26 37.6 482.462 42.124 478.584 49.19C478.356 49.605 474.263 46.708 474.453 47.239C475.447 50.012 475.096 51.795 475.148 54.741C475.222 58.876 473.364 62.767 472.394 66.788C470.649 74.02 471.791 81.653 470.613 88.999C469.941 93.189 468.524 97.222 467.631 101.371C475.261 100.989 482.981 102.601 489.821 106.003C494.517 116.111 497.774 126.75 498.92 137.836C503.509 138.215 508.133 138.594 512.707 138.07C516.607 137.623 520.403 136.526 524.118 135.258C535.313 131.437 545.918 126.033 556.021 119.88C556.351 119.679 556.729 119.311 556.536 118.977C554.418 115.304 551.59 112.386 548.334 109.67C546.934 108.503 545.403 107.491 544.084 106.233C542.146 104.385 540.732 102.072 539.251 99.841C537.561 97.294 535.753 94.815 534.324 92.113C532.62 88.89 531.482 85.404 530.353 81.938C529.015 77.829 527.67 73.695 527.067 69.416C526.889 68.154 526.775 66.877 526.446 65.646C525.735 62.987 524.069 60.702 522.437 58.485C520.511 55.87 518.585 53.254 516.659 50.639C519.225 50.676 521.79 50.713 524.356 50.75C524.763 50.757 525.343 50.279 525.747 50.285Z" fill="#F1D857"/>
<path d="M491.28 54.391C494.071 54.895 496.875 55.07 499.647 54.945C502.407 54.797 505.19 54.352 507.767 53.488C510.342 52.621 512.866 51.119 515.789 50.625C518.607 50.188 521.541 49.941 524.31 50.682C521.484 50.445 518.709 51.025 516.006 51.629C513.361 52.295 510.968 53.79 508.207 54.76C505.418 55.661 502.545 56.047 499.663 55.986C496.787 55.936 493.933 55.394 491.28 54.391Z" fill="#171918"/>
<path d="M526.917 29.186C525.667 32.888 523.707 36.376 522.618 40.121C521.529 43.865 519.199 46.891 521.469 50.166" stroke="#F23063" stroke-width="1.2869" stroke-miterlimit="10"/>
<path d="M468.062 99.401C476.256 97.864 482.778 98.476 489.886 102.833" stroke="#F23063" stroke-width="1.3482" stroke-miterlimit="10"/>
<path d="M483.518 37.085C495.512 32.767 513.163 29.908 525.863 31.009" stroke="#F23063" stroke-width="1.3482" stroke-miterlimit="10"/>
<path d="M482.657 40.183C494.789 36.747 511.876 34.356 524.484 34.525" stroke="#F23063" stroke-width="1.3482" stroke-miterlimit="10"/>
<path d="M471.63 99.501C477.623 87.693 470.639 72.47 476.31 60.505C476.31 60.505 478.354 57.394 476.632 48.788" stroke="#F23063" stroke-width="1.3482" stroke-miterlimit="10"/>
<path d="M490.23 106.964C489.688 103.27 488.318 99.861 486.803 96.499C486.052 94.854 485.12 93.276 484.206 91.648C483.314 90.002 482.494 88.311 481.775 86.578C480.376 83.098 479.329 79.471 478.769 75.769C478.167 72.075 478.073 68.31 478.42 64.614C478.766 72.027 480.239 79.292 483.023 86.068C483.701 87.768 484.495 89.415 485.33 91.047C486.164 92.683 487.098 94.317 487.772 96.096C488.437 97.835 489.062 99.598 489.517 101.42C489.944 103.245 490.214 105.105 490.23 106.964Z" fill="#171918"/>
<path d="M487.132 33.643L479.903 51.37L474.224 48.272V46.551L478.526 48.445L485.121 31.707L487.132 33.643Z" fill="#F23063"/>
<path d="M550.528 38.978C550.139 38.521 548.949 38.465 548.381 38.271C542.233 36.168 535.999 34.322 529.704 32.712C527.599 37.997 524.675 43.34 524.06 49.073C525.277 53.152 526.719 54.812 522.244 60.32C519.813 63.311 513.466 60.099 510.254 62.229C508.469 63.413 508.047 65.833 508.015 67.975C507.97 70.997 508.38 74.026 509.228 76.928C512.317 77.139 515.342 78.209 517.877 79.986C522.783 74.681 529.728 71.855 535.792 67.925C541.856 63.996 546.857 57.223 548.578 50.567C548.869 49.443 550.845 46.421 551.102 45.289C551.614 43.038 551.543 43.209 551.905 40.929C552.012 40.253 550.971 39.5 550.528 38.978Z" fill="#FAB38B"/>
<path d="M174.405 204.232C172.436 199.683 162.506 189.379 158.62 186.003C153.236 181.326 149.728 173.567 145.871 167.774C142.938 163.369 139.278 158.806 133.626 158.528C131.578 158.427 129.686 159.42 127.881 160.305C121.118 163.62 113.712 165.844 106.109 166.842C105.357 170.587 108.427 173.982 111.246 176.796C123.285 188.813 125.484 192.631 134.507 206.667C137.939 212.005 147.491 226.808 151.334 231.908C154.468 236.068 161.752 243.969 165.357 247.801C173.18 256.117 180.05 259.954 187.873 268.27C188.65 269.096 189.606 269.996 190.799 269.938C191.874 269.885 192.689 269.068 193.359 268.301C197.44 263.63 200.802 260.219 198.861 254.385C196.75 248.041 191.53 241.596 188.328 235.581C181.255 222.292 180.352 217.97 174.405 204.232Z" fill="#F9D0BB"/>
<path d="M189.038 271.843C189.038 271.843 190.105 276.913 196.777 279.048C203.448 281.183 203.982 280.115 209.853 282.25C215.724 284.385 234.692 286.753 235.627 274.6C235.97 270.138 216.588 261.21 208.049 259.876C201.111 254.806 202.915 255.297 199.446 256.632C195.977 257.966 192.508 260.368 192.508 264.371C192.508 268.374 187.171 267.306 187.171 267.306C187.171 267.306 187.703 269.975 189.038 271.843Z" fill="#171918"/>
<path d="M198.829 254.086C196.718 247.742 191.498 241.297 188.296 235.282C181.224 221.993 180.321 217.671 174.373 203.933C172.797 200.294 166.132 192.978 161.538 188.467C155.099 197.428 144.965 203.625 134.112 205.803C134.236 205.996 134.348 206.171 134.475 206.368C137.907 211.706 147.459 226.509 151.302 231.609C154.436 235.769 161.721 243.67 165.325 247.502C173.148 255.818 180.018 259.655 187.841 267.971C188.618 268.797 189.574 269.697 190.767 269.638C191.842 269.585 192.657 268.768 193.327 268.002C197.407 263.331 200.77 259.919 198.829 254.086Z" fill="#EFE8DF"/>
<path d="M163.841 190.544C161.683 195.058 157.248 199.08 153.047 201.798C148.24 204.909 142.228 207.483 136.687 208.926" stroke="#FF8C00" stroke-width="1.8308" stroke-miterlimit="10"/>
<path d="M124.378 265.716C126.176 269.64 128.734 273.214 131.868 276.182C133.76 277.973 136.123 279.629 138.721 279.427C142.11 279.163 144.468 275.83 145.36 272.55C147.042 266.365 145.266 259.769 142.805 253.85C140.344 247.931 137.169 242.231 135.882 235.952C135.216 232.702 134.815 228.915 132.058 227.07C125.18 222.467 118.856 233.649 118.174 239.14C117.686 243.072 119.513 247.654 120.3 251.481C121.295 256.322 122.307 261.197 124.378 265.716Z" fill="#171918"/>
<path d="M129.613 226.195C121.308 222.367 120.214 206.709 117.367 198.02C114.52 189.33 111.376 186.826 106.149 179.323C105.489 178.376 102.575 177.381 101.591 176.778C100.523 176.123 99.249 175.908 98.004 175.761C91.125 174.948 84.053 175.825 77.58 178.292C73.289 179.928 68.721 183.115 68.715 187.707C68.708 192.643 73.778 195.745 77.059 199.432C80.216 202.98 81.899 207.561 84.221 211.704C89.341 220.843 97.534 227.793 105.552 234.535C110.921 239.05 116.29 243.565 121.659 248.079C125.717 251.491 133.054 254.377 134.399 246.91C135.38 241.469 130.861 231.603 129.613 226.195Z" fill="#F9D0BB"/>
<path d="M129.938 226.808C121.634 222.98 120.54 207.322 117.692 198.633C115.684 192.504 113.524 189.447 110.593 185.548C108.238 193.523 102.67 199.874 95.539 204.474C91.693 206.955 87.489 208.733 82.974 209.314C83.481 210.326 83.995 211.335 84.546 212.318C89.666 221.457 97.859 228.407 105.877 235.148C111.246 239.663 116.615 244.178 121.984 248.692C126.041 252.104 133.379 254.99 134.724 247.523C135.706 242.082 131.187 232.217 129.938 226.808Z" fill="#EFE8DF"/>
<path d="M113.726 189.883C110.715 197.98 104.094 204.293 96.726 208.804C95.374 209.632 93.989 210.41 92.549 211.072C90.282 212.115 87.882 212.868 85.426 213.307" stroke="#FF8C00" stroke-width="1.8308" stroke-miterlimit="10"/>
<path d="M123.029 186.617C122.49 186.872 121.934 187.131 121.339 187.171C120.504 187.227 119.708 186.847 118.957 186.476C114.294 184.172 109.631 181.869 104.968 179.565C101.623 177.912 98.217 176.24 94.538 175.618C84.936 173.996 74.115 184.301 72.025 193.812C64.828 188.258 57.67 180.875 51.925 173.829C47.424 168.309 44.405 159.364 44.963 152.264C45.036 151.335 45.229 150.338 45.915 149.707C46.414 149.248 47.097 149.057 47.752 148.88C70.952 142.605 93.803 135.045 116.168 126.246C118.631 134.131 127.3 137.998 132.943 144.031C137.442 148.84 141.294 153.589 143.775 159.689C146.09 165.383 154.063 169.869 148.216 174.179C142.469 178.418 129.493 183.563 123.029 186.617Z" fill="#FD0C48"/>
<path d="M47.695 148.171C47.766 152.069 47.018 158.171 53.211 167.753C56.76 173.244 65.511 182.331 73.778 188.554" stroke="white" stroke-width="1.7832" stroke-miterlimit="10"/>
<path d="M116.577 131.498C120.384 136.373 124.527 140.986 128.968 145.291C131.562 147.806 134.271 150.232 136.47 153.099C138.767 156.094 140.455 159.503 142.095 162.903C144.106 167.072 146.617 169.029 148.529 173.245" stroke="white" stroke-width="1.7832" stroke-miterlimit="10"/>
<path d="M88.899 154.706C91.445 157.381 93.85 160.163 96.228 162.961C98.614 165.753 100.94 168.588 103.292 171.398C105.628 174.219 107.949 177.064 110.339 179.805C112.746 182.536 115.312 185.11 118.27 187.323C114.919 185.745 111.965 183.362 109.33 180.763C106.679 178.157 104.294 175.352 101.921 172.535C99.584 169.688 97.308 166.794 95.141 163.82C92.964 160.853 90.862 157.833 88.899 154.706Z" fill="white"/>
<path d="M21.653 93.569C20.628 95.669 19.448 97.735 18.966 100.021C18.408 102.669 18.857 105.517 20.202 107.866C20.894 109.074 21.814 110.158 22.337 111.449C23.042 113.191 22.957 115.146 22.715 117.01C22.323 120.025 21.548 122.99 20.414 125.811C18.566 124.914 16.313 124.896 14.451 125.764C13.388 126.259 12.189 127.038 11.154 126.486C10.589 126.185 10.283 125.568 9.986 125.001C8.448 122.068 6.203 119.508 3.497 117.6C2.789 117.101 2.041 116.637 1.461 115.993C-0.310003 114.024 -0.030003 110.914 1.058 108.499C2.145 106.084 3.898 104.006 4.914 101.56C6.652 97.379 6.063 92.658 6.049 88.13C6.019 78.427 8.848 68.732 14.092 60.568C15.107 58.988 21.582 64.389 22.225 65.134C24.002 67.194 25.908 70.157 26.515 72.855C27.961 79.279 24.402 87.94 21.653 93.569Z" fill="#F9D0BB"/>
<path d="M125.313 105.702C125.313 105.702 133.96 130.242 139.803 141.227C143.776 149.641 146.113 152.913 146.113 152.913C146.113 152.913 144.944 167.871 148.216 170.442C151.488 173.013 153.592 174.182 153.592 174.182C153.592 174.182 156.864 183.063 160.603 182.362C164.343 181.661 165.044 175.35 166.446 171.377C167.848 167.404 157.799 149.641 157.799 149.641C157.799 149.641 152.657 110.844 147.516 100.561C130.455 102.196 125.313 105.702 125.313 105.702Z" fill="#F9D0BB"/>
<path d="M91.775 43.65C91.775 43.65 93.294 44.974 94.034 47.506C94.774 50.038 92.047 65.424 79.505 64.45C66.962 63.476 67.43 49.22 67.43 49.22L91.775 43.65Z" fill="#F9D0BB"/>
<path d="M91.833 44.176C91.833 44.176 80.615 57.439 68.345 51.713C74.013 61.412 83.069 58.958 86.925 55.121C89.492 52.567 93.157 46.357 93.157 46.357L91.833 44.176Z" fill="#EDA58A"/>
<path d="M133.415 70.411C138.687 77.923 142.977 85.139 147.438 93.159C148.16 94.457 148.741 98.69 148.455 100.147C148.075 102.076 146.096 103.187 144.325 104.041C138.483 106.857 127.884 105.145 122.042 107.961C117.69 99.627 117.295 96.238 111.435 88.885C111.226 96.454 104.744 104.35 108.727 110.789C109.922 112.721 111.876 114.035 113.446 115.676C117.288 119.692 118.638 125.41 119.838 130.837C97.759 143.342 70.733 151.931 45.383 150.809C46.127 143.102 46.773 132.815 44.584 125.388C43.561 121.917 42.225 118.53 41.5 114.985C40.785 111.49 40.676 107.903 40.569 104.337C40.214 92.449 41.765 86.739 41.409 74.851C38.117 77.765 38.137 77.539 36.267 79.408C31.864 83.811 28.71 82.252 26.996 84.9C25.156 79.099 10.295 74.653 8.45399 68.852C8.08899 67.701 11.793 62.706 12.062 61.53C12.353 60.255 13.338 59.268 14.307 58.391C27.154 46.757 47.292 38.04 64.313 41.313C67.351 41.897 67.001 47.351 68.987 54.051C69.358 55.303 72.388 61.908 77.401 63.088C84.023 64.646 89.749 57.674 90.723 52.571C91.516 48.418 91.853 42.95 91.853 42.95C91.853 42.95 100.578 43.885 110.003 49.026C119.643 54.285 127.18 61.441 133.415 70.411Z" fill="#FF8C00"/>
<path d="M72.16 109.508L74.874 105.595C76.48 107.039 78.377 108.203 80.637 108.175C83.349 108.141 85.075 106.68 85.041 103.959C85.007 101.306 83.279 99.878 80.822 99.909C79.284 99.929 78.488 100.278 76.913 101.315L74.152 99.579L74.71 86.172L89.755 85.981L89.82 91.143L80.075 91.267L79.701 96.248C80.702 95.806 81.551 95.615 82.64 95.601C87.221 95.543 91.121 98.085 91.193 103.727C91.267 109.614 86.755 113.053 81.579 113.119C77.25 113.174 74.271 111.565 72.16 109.508Z" fill="white"/>
<path d="M10.091 69.125C11.624 66.052 13.068 64.851 15.488 62.415C22.325 55.535 30.819 50.387 39.927 47.049C49.034 43.711 58.748 42.155 68.446 41.99" stroke="white" stroke-width="1.8308" stroke-miterlimit="10"/>
<path d="M12.662 71.93C16.524 66.257 20.577 62.579 26.342 58.669C31.698 55.037 37.696 52.324 43.92 50.342C49.342 48.615 54.952 47.432 60.628 46.818C65.909 46.247 64.063 46.182 69.377 46.104" stroke="white" stroke-width="1.7832" stroke-miterlimit="10"/>
<path d="M68.608 51.706C69.316 54.806 70.432 57.894 72.49 60.318C74.548 62.742 77.679 64.416 80.843 64.105C84.073 63.787 86.816 61.5 88.663 58.831C91.442 54.815 92.622 49.724 91.892 44.895" stroke="white" stroke-width="1.8308" stroke-miterlimit="10"/>
<path d="M11.25 63.229C10.097 65.185 8.22799 68.034 8.49199 68.869C10.332 74.67 25.193 79.116 27.034 84.917C28.398 82.809 30.677 83.357 33.768 81.454C25.598 76.132 16.708 71.504 11.25 63.229Z" fill="white"/>
<path d="M129.726 100.94C126.465 101.642 123.017 102.181 119.778 103.173C120.459 104.637 121.226 106.238 122.195 108.094C128.037 105.278 138.636 106.99 144.478 104.173C146.249 103.319 148.229 102.208 148.609 100.279C148.821 99.204 148.558 96.623 148.117 94.82C142.378 97.946 136.116 99.564 129.726 100.94Z" fill="white"/>
<path d="M92.125 46.035C101.015 46.274 109.106 51.235 115.86 57.02C130.755 69.779 139.024 83.965 145.413 99.858" stroke="white" stroke-width="1.7832" stroke-miterlimit="10"/>
<path d="M91.814 49.376C100.703 49.615 105.978 53.886 112.732 59.671C127.627 72.43 135.896 86.616 142.285 102.509" stroke="white" stroke-width="1.7832" stroke-miterlimit="10"/>
<path d="M66.085 45.774C67.204 49.842 69.141 54.094 72.917 55.975C76.167 57.594 80.211 57.042 83.328 55.18C86.445 53.318 88.73 50.307 90.408 47.088C92.521 43.035 93.786 38.542 94.099 33.981C94.296 31.109 94.07 28.059 92.485 25.656C91.151 23.633 88.994 22.293 86.769 21.334C82.175 19.353 76.89 18.764 72.111 20.246C61.177 23.634 63.739 37.248 66.085 45.774Z" fill="#F9D0BB"/>
<path d="M86.75 29.858C86.75 29.858 85.036 34.783 90.645 35.824C91.892 37.003 91.697 43.962 91.697 43.962C91.697 43.962 93.372 46.092 95.32 42.831C97.268 39.57 98.904 35.339 98.202 30.413C97.501 25.488 98.046 16.955 91.97 13.833C85.893 10.711 70.935 10.226 65.95 16.469C60.964 22.712 61.276 32.742 64.548 38.43C64.938 31.285 65.717 27.638 65.717 27.638C65.717 27.638 72.105 30.344 78.104 29.858C84.101 29.373 86.75 29.858 86.75 29.858Z" fill="#740D20"/>
<path d="M77.595 40.298C79.107 39.363 80.943 39.416 82.408 40.418C82.621 40.564 82.881 40.254 82.666 40.107C81.883 39.572 80.992 39.242 80.04 39.212C79.087 39.182 78.166 39.47 77.359 39.969C77.139 40.106 77.374 40.434 77.595 40.298Z" fill="#740D20"/>
<path d="M79.218 41.017C80.09 41.025 80.104 39.671 79.231 39.663C78.359 39.655 78.345 41.009 79.218 41.017Z" fill="#740D20"/>
<path d="M66.276 40.438C67.788 39.503 69.624 39.556 71.089 40.558C71.302 40.704 71.562 40.394 71.347 40.247C70.564 39.712 69.673 39.382 68.721 39.352C67.768 39.322 66.847 39.61 66.04 40.109C65.82 40.245 66.055 40.574 66.276 40.438Z" fill="#740D20"/>
<path d="M69.535 41.099C70.406 41.107 70.421 39.753 69.548 39.745C68.676 39.736 68.662 41.09 69.535 41.099Z" fill="#740D20"/>
<path d="M74.232 38.742C74.047 40.633 73.864 42.524 73.715 44.418C73.643 45.343 73.577 46.269 73.536 47.196C73.507 47.852 73.292 49.022 74.18 49.189C74.491 49.247 74.624 48.771 74.311 48.712C73.741 48.605 74.056 46.654 74.081 46.232C74.134 45.364 74.2 44.498 74.272 43.631C74.408 42 74.566 40.371 74.725 38.742C74.758 38.426 74.263 38.428 74.232 38.742Z" fill="#740D20"/>
<path d="M79.756 35.906C80.948 35.761 82.22 35.925 83.211 36.602C83.563 36.842 83.903 37.252 83.758 37.653C83.626 38.016 83.177 38.137 82.792 38.169C81.297 38.295 79.763 37.884 78.306 38.245C77.931 38.338 77.566 38.481 77.181 38.521C76.154 38.628 75.361 37.407 76.366 36.797C77.228 36.274 78.775 36.025 79.756 35.906Z" fill="#740D20"/>
<path d="M69.089 36.081C67.897 35.936 66.625 36.1 65.634 36.777C65.282 37.017 64.942 37.427 65.087 37.827C65.219 38.19 65.668 38.311 66.053 38.343C67.548 38.469 69.082 38.058 70.539 38.419C70.914 38.512 71.279 38.655 71.664 38.695C72.691 38.801 73.484 37.581 72.479 36.971C71.618 36.449 70.071 36.2 69.089 36.081Z" fill="#740D20"/>
<path d="M76.379 53.206C75.453 53.312 74.427 53.392 73.679 52.836C73.486 52.692 73.313 52.495 73.281 52.256C73.218 51.797 73.706 51.426 74.168 51.389C74.63 51.352 75.078 51.532 75.533 51.616C76.352 51.765 78.136 50.758 78.512 51.402C79.123 52.448 77.03 53.131 76.379 53.206Z" fill="#740D20"/>
<path d="M96.41 37.944C96.41 40.02 94.727 41.703 92.651 41.703C90.575 41.703 88.892 40.02 88.892 37.944C88.892 35.868 90.575 34.185 92.651 34.185C94.727 34.185 96.41 35.868 96.41 37.944Z" fill="#F9D0BB"/>
<path d="M93.514 36.976C92.491 38.031 91.468 39.085 90.444 40.139C90.222 40.367 90.571 40.717 90.794 40.489C91.817 39.434 92.841 38.38 93.864 37.326C94.086 37.097 93.736 36.747 93.514 36.976Z" fill="#740D20"/>
<path d="M293.816 182.339C295.511 186.139 297.346 189.973 297.806 194.108C298.454 199.934 296.31 205.677 295.709 211.508C294.902 219.331 296.881 227.144 298.844 234.76C301.201 243.904 303.558 253.048 305.914 262.192C310.81 261.84 315.764 262.318 320.501 263.602C317.918 235.507 325.103 207.256 323.142 179.11C321.945 161.93 317.302 144.997 309.569 129.61C309.005 128.488 308.367 127.312 307.27 126.701C306.286 126.152 305.099 126.154 303.972 126.172C298.895 126.253 293.767 126.383 288.847 127.639C285.463 128.503 278.524 130.662 277.522 134.572C276.554 138.35 280.45 145.581 281.599 149.204C285.159 160.428 289.016 171.578 293.816 182.339Z" fill="#EAB19D"/>
<path d="M323.352 179.243C322.704 169.945 321.013 160.729 318.403 151.782C308.97 151.423 299.45 151.148 290.101 152.617C287.816 152.976 285.558 153.463 283.32 154.031C286.465 163.665 289.895 173.213 294.025 182.472C295.72 186.272 297.555 190.106 298.015 194.241C298.663 200.067 296.519 205.81 295.918 211.641C295.111 219.464 297.09 227.277 299.053 234.893L306.123 262.325C311.019 261.973 315.973 262.451 320.71 263.735C318.128 235.64 325.313 207.389 323.352 179.243Z" fill="#EFEDED"/>
<path d="M284.106 157.029C295.802 154.752 307.361 153.823 319.221 154.973" stroke="#FD0C48" stroke-width="1.239" stroke-miterlimit="10"/>
<path d="M284.971 160.25C296.371 157.891 308.38 157.324 320.011 157.82" stroke="#FD0C48" stroke-width="1.239" stroke-miterlimit="10"/>
<path d="M320.38 261.187C317.32 263.603 313.871 262.582 312.788 262.242C309.097 261.082 306.461 260.133 304.743 256.525C303.453 258.688 302.245 260.899 301.12 263.151C300.817 263.758 300.513 264.399 300.535 265.076C300.56 265.851 301.005 266.545 301.483 267.155C305.792 272.658 313.851 274.968 316.535 281.422C317.179 282.97 317.453 284.658 318.166 286.175C318.732 287.381 319.561 288.448 320.491 289.401C324.526 293.538 339.449 299.47 338.519 288.94C337.61 278.64 325.284 269.767 320.38 261.187Z" fill="#171918"/>
<path d="M274.389 141.106C276.485 144.002 279.863 145.963 281.291 149.24C284.661 142.881 288.756 136.907 293.473 131.472C290.576 131.139 288.646 128.412 287.101 125.938C286.788 125.437 286.444 124.908 285.902 124.675C285.417 124.466 284.862 124.534 284.34 124.612C281.499 125.039 271.173 126.182 269.954 129.179C268.966 131.605 272.94 139.104 274.389 141.106Z" fill="#6A136D"/>
<path d="M207.969 68.916C205.906 72.277 206.639 75.042 206.284 78.97C206.157 80.378 204.154 82.947 203.449 84.173C201.666 87.274 197.128 86.83 193.655 85.97C191.099 80.868 189.806 79.648 189.623 74.963C189.588 74.056 193.039 70.07 193.374 69.227C193.933 67.819 199.232 60.759 200.168 59.567C207.128 50.709 208.995 48.372 216.292 40.264C221.781 34.166 230.604 25.85 238.763 24.979C237.588 30.013 237.631 39.267 236.929 44.161C236.365 48.097 232.09 49.969 228.977 51.938C221.395 56.731 212.818 61.014 207.969 68.916Z" fill="#F9D0BB"/>
<path d="M395.38 89.784C395.353 88.892 395.298 87.954 394.824 87.198C394.414 86.544 393.742 86.109 393.092 85.695C383.71 79.706 377.523 73.786 368.465 67.318C364.732 64.652 354.999 59.417 351.54 56.404C348.348 53.624 342.838 51.218 342.366 51.659C337.103 56.575 331.275 62.283 328.056 68.726C327.651 69.536 327.267 70.518 327.714 71.305C328 71.809 328.559 72.087 329.098 72.301C335.555 74.865 340.944 72.688 346.953 76.176C349.965 77.924 354.542 80.7 357.434 82.64C361.272 85.213 366.095 85.653 370.555 86.862C375.015 88.071 379.724 90.668 380.82 95.157C381.28 97.039 381.075 99.164 382.182 100.754C382.883 101.761 384.003 102.379 385.083 102.962C388.721 104.926 393.291 109.479 394.709 103.899C395.819 99.531 395.503 94.253 395.38 89.784Z" fill="#F9D0BB"/>
<path d="M280.415 27.827C280.415 27.827 275.248 30.041 276.303 36.052C277.358 42.063 281.681 46.386 285.477 44.593C289.273 42.801 280.415 27.827 280.415 27.827Z" fill="#F9D0BB"/>
<path d="M230.371 27.399C228.725 34.513 230.643 42.36 235.383 47.913C236.343 49.038 237.577 50.144 239.056 50.137C240.135 50.132 241.109 49.53 242.019 48.948C244.513 47.351 247.006 45.755 249.5 44.158C250.755 53.266 245.079 61.675 241.942 70.317C238.686 79.287 238.136 89.22 240.381 98.495C259.337 93.448 279.419 98.51 299.002 97.388C299.697 97.348 300.622 96.595 300.036 96.219C296.036 86.1 302.032 82.344 305.986 69.215C306.64 67.043 309.261 62.819 311.519 62.597C313.857 62.367 316.15 65.951 318.165 67.159C322.302 69.638 326.706 71.588 330.481 72.264C333.857 64.14 339.183 56.835 345.882 51.133C335.835 47.716 326.22 43.033 317.335 37.232C313.621 34.807 309.842 32.111 305.443 31.544C303.686 36.936 299.516 41.492 294.299 43.717C290.176 45.476 284.948 45.621 281.62 42.618C279.093 40.337 278.174 36.667 278.509 33.279C278.844 29.891 280 29.224 281.548 26.191C276.724 23.08 277.029 22.495 271.873 19.917C266.811 17.386 254.645 17.433 247.409 20.55C241.572 23.065 236.093 24.632 230.371 27.399Z" fill="#FD0C48"/>
<path d="M307.726 34.418C313.886 37.241 320.097 41.521 325.905 45.011C331.713 48.501 334.194 49.444 338.201 50.921" stroke="white" stroke-width="1.2068" stroke-miterlimit="10"/>
<path d="M341.018 49.357C332.847 54.341 326.87 60.888 323.649 69.902" stroke="white" stroke-width="1.2068" stroke-miterlimit="10"/>
<path d="M273.76 72.425L277.498 73.623L280.669 63.73L277.466 62.704L278.253 60.248C280.199 60.487 281.559 60.41 282.994 60.052L285.912 60.988L281.455 74.893L284.658 75.92L283.634 79.114L272.736 75.621L273.76 72.425Z" fill="white"/>
<path d="M233.384 30.147C241.495 26.28 246.094 24.387 254.839 22.318C257.158 21.769 259.523 21.35 261.907 21.343C268.711 21.322 275.031 24.611 281.033 27.817" stroke="white" stroke-width="1.2068" stroke-miterlimit="10"/>
<path d="M232.794 26.219C233.196 35.265 235.375 43.018 242.664 48.39" stroke="white" stroke-width="1.2068" stroke-miterlimit="10"/>
<path d="M280.283 32.361H279.018C279.018 32.361 278.464 40.349 282.102 42.959C279.729 37.581 280.283 32.361 280.283 32.361Z" fill="#EDAD91"/>
<path d="M310.099 27.3C310.099 27.3 306.566 48.891 293.28 51.633C286.32 53.531 279.15 42.564 280.415 30.965C281.68 24.215 300.398 5.999 310.099 27.3Z" fill="#F9D0BB"/>
<path d="M310.257 30.147C310.257 30.147 316.109 27.142 312.05 17.282C310.162 12.698 309.414 11.588 306.356 8.635C303.298 5.682 295.706 4.522 292.964 4.417C290.222 4.312 284.739 6.73701 283.052 9.16201C281.365 11.587 278.307 14.118 278.623 24.874C280.205 24.769 283.474 24.769 284.001 31.306C287.27 24.557 292.437 22.976 292.437 22.976C292.437 22.976 301.716 34.576 310.257 30.147Z" fill="#740D20"/>
<path d="M279.967 32.361C282.02 32.361 283.684 30.6968 283.684 28.644C283.684 26.5912 282.02 24.927 279.967 24.927C277.914 24.927 276.25 26.5912 276.25 28.644C276.25 30.6968 277.914 32.361 279.967 32.361Z" fill="#F9D0BB"/>
<path d="M281.426 30.981C280.397 30.004 279.345 29.051 278.272 28.123C278.11 27.983 277.872 28.218 278.035 28.36C279.108 29.289 280.159 30.242 281.189 31.218C281.346 31.366 281.583 31.13 281.426 30.981Z" fill="#740D20"/>
<path d="M299.031 37.542C298.502 36.739 297.776 36.082 296.887 35.703C295.994 35.321 295.025 35.244 294.073 35.405C293.813 35.449 293.923 35.845 294.182 35.801C295.96 35.5 297.683 36.242 298.676 37.749C298.821 37.969 299.177 37.763 299.031 37.542Z" fill="#740D20"/>
<path d="M296.87 37.718C296.062 37.353 296.628 36.097 297.437 36.462C298.244 36.827 297.679 38.083 296.87 37.718Z" fill="#740D20"/>
<path d="M294.059 46.535C293.93 46.983 294.584 47.565 295.521 47.836C296.458 48.107 297.323 47.964 297.452 47.516C297.582 47.069 296.763 47.25 295.826 46.979C294.89 46.709 294.189 46.087 294.059 46.535Z" fill="#740D20"/>
<path d="M301.505 34.998C300.719 33.131 297.076 30.674 294.651 30.674C292.226 30.674 290.538 32.15 290.538 32.15C290.538 32.15 293.353 31.407 295.705 32.994C297.972 34.523 302.897 38.302 301.505 34.998Z" fill="#740D20"/>
<path d="M303.453 37.775C303.058 39.358 302.539 40.908 301.885 42.403C301.575 43.112 301.236 43.809 300.87 44.491C300.694 44.82 300.528 45.262 300.27 45.531C299.963 45.85 299.227 45.74 298.824 45.681C298.613 45.65 298.523 45.973 298.735 46.004C299.38 46.098 300.24 46.22 300.636 45.591C301.133 44.803 301.546 43.946 301.937 43.101C302.714 41.417 303.328 39.663 303.777 37.863C303.828 37.655 303.505 37.566 303.453 37.775Z" fill="#740D20"/>
<path d="M307.311 37.133C307.343 37.058 307.375 36.982 307.407 36.907C307.415 36.888 307.419 36.878 307.424 36.866C307.425 36.864 307.425 36.864 307.426 36.862C307.489 36.711 307.552 36.56 307.613 36.409C307.684 36.234 307.748 36.057 307.815 35.881C306.708 35.991 305.69 36.283 305.107 36.729C303.607 37.875 305.104 38.016 306.979 37.924C307.091 37.661 307.198 37.396 307.311 37.133Z" fill="#740D20"/>
<path d="M304.527 40.086C304.748 39.98 304.975 39.885 305.214 39.827C305.3 39.806 305.371 39.793 305.453 39.788C305.486 39.786 305.52 39.785 305.553 39.787C305.566 39.787 305.579 39.788 305.592 39.789C305.6 39.79 305.609 39.79 305.617 39.791C305.6 39.788 305.6 39.788 305.616 39.791C305.642 39.795 305.668 39.801 305.693 39.808C305.706 39.812 305.772 39.839 305.736 39.822C305.757 39.832 305.778 39.843 305.797 39.855C305.806 39.86 305.814 39.867 305.823 39.872C305.843 39.885 305.8 39.85 305.828 39.876C305.842 39.889 305.856 39.901 305.869 39.915C305.877 39.924 305.915 39.972 305.887 39.934C305.908 39.963 305.927 39.992 305.944 40.023C306.032 40.18 306.273 40.039 306.185 39.882C305.811 39.213 304.903 39.595 304.384 39.844C304.223 39.923 304.365 40.164 304.527 40.086Z" fill="#740D20"/>
<path d="M305.584 40.707C306.183 40.78 306.297 39.85 305.697 39.777C305.099 39.704 304.985 40.634 305.584 40.707Z" fill="#740D20"/>
<path d="M288.462 93.288C285.995 92.762 283.458 92.678 280.937 92.595C267.131 92.142 253.299 91.69 239.512 92.549C239.7 97.983 239.831 102.281 241.188 107.547C242.219 111.548 244.52 116.65 246.801 120.095C251.103 126.591 259.041 129.755 266.748 130.895C274.456 132.034 286.935 131.459 294.651 132.539C293.719 126.501 291.552 120.835 294.018 115.245C295.225 112.509 296.938 109.532 299.08 107.442C301.354 105.223 303.931 102.591 310.89 102.38C307.055 98.161 294.031 94.475 288.462 93.288Z" fill="#962E91"/>
<path d="M257.111 91.835C258.731 94.405 259.527 94.871 262.042 96.576C263.367 97.474 264.869 98.073 266.372 98.622C271.176 100.378 276.137 101.701 281.177 102.571C287.438 103.652 293.864 104.046 299.886 106.069" stroke="white" stroke-width="1.2068" stroke-miterlimit="10"/>
<path d="M264.07 91.624C268.68 96.059 273.176 95.03 279.454 96.255C285.355 97.407 291.355 98.162 297.101 99.934C302.264 101.526 301.243 100.947 306.039 103.434" stroke="white" stroke-width="1.2068" stroke-miterlimit="10"/>
<path d="M335.637 120.674C328.254 112.907 321.127 103.868 310.828 100.907C309.766 100.602 308.641 100.367 307.561 100.601C306.482 100.835 305.56 101.512 304.688 102.189C295.176 109.58 286.898 120.431 287.735 132.448C294.443 133.826 301.764 131.346 308.091 133.966C312.327 135.72 315.345 139.462 318.316 142.953C328.784 155.253 345.651 165.47 361.473 168.716C375.683 171.631 382.003 180.821 387.888 183.654C385.923 182.708 387.585 168.793 387.342 166.165C386.849 160.838 371.374 150.282 367.334 147.356C356.143 139.251 345.179 130.713 335.637 120.674Z" fill="#F9D0BB"/>
<path d="M390.61 168.971C390.117 163.644 371.709 150.572 367.668 147.646C356.476 139.541 345.512 131.002 335.97 120.964C334.356 119.266 332.753 117.509 331.128 115.766C323.202 121.277 317.35 128.806 313.055 137.235C315.098 139.016 316.886 141.17 318.65 143.243C329.118 155.543 345.985 165.76 361.807 169.005C376.017 171.92 382.337 181.11 388.222 183.943C386.258 182.998 390.853 171.599 390.61 168.971Z" fill="#EFEDED"/>
<path d="M314.418 138.915C316.775 134.696 319.143 130.46 322.05 126.632C324.958 122.804 328.445 119.371 332.612 117.142" stroke="#FD0C48" stroke-width="1.2141" stroke-miterlimit="10"/>
<path d="M316.813 141.471C318.093 137.74 320.421 134.466 322.871 131.375C326.108 127.291 330.049 122.607 334.616 120.095" stroke="#FD0C48" stroke-width="1.239" stroke-miterlimit="10"/>
<path d="M400.364 187.267C404.642 182.539 410.381 177.426 415.666 172.237C420.951 167.048 420.146 162.822 418.132 160.747C416.119 158.671 393.68 178.659 393.931 186.846C394.435 190.304 399.71 187.99 400.364 187.267Z" fill="#47534F"/>
<path d="M419.661 163.646C419.661 163.646 416.392 149.938 408.167 157.952C404.179 161.838 395.829 165.439 395.829 165.439L388.342 164.49C388.342 164.49 385.706 165.123 386.866 169.13C388.026 173.137 388.342 178.515 386.128 182.311C393.51 187.583 394.248 187.9 394.248 187.9C394.248 187.9 396.982 189.936 399.731 182.1C401.84 176.089 415.115 162.924 419.661 163.646Z" fill="#171918"/>
</svg>
