<svg width="413" height="361" viewBox="0 0 413 361" fill="none" xmlns="http://www.w3.org/2000/svg">
<g opacity="0.7">
<path d="M18.5382 349.662C18.5382 347.409 20.3967 345.566 22.6682 345.566H377.495C379.766 345.566 381.625 347.409 381.625 349.662C381.625 351.914 379.766 353.758 377.495 353.758H22.6682C20.3967 353.758 18.5382 351.914 18.5382 349.662Z" fill="#8271A8"/>
</g>
<path d="M224.652 178.041C227.033 179.153 229.853 180.429 229.853 182.198C229.853 183.968 226.657 185.45 217.947 183.598C209.238 181.745 207.295 177.486 208.799 176.744C210.303 176.003 216.735 176.127 216.735 176.127L224.652 178.041Z" fill="#C62433"/>
<path d="M277.429 155.537C276.585 158.472 273.873 160.384 270.927 160.384C270.312 160.384 269.688 160.303 269.068 160.126C269.013 160.113 265.824 159.218 261.199 157.857C257.725 156.83 253.434 155.546 249.061 154.171C227.351 147.357 224.552 145.033 223.207 143.912C220.39 141.57 217.948 136.84 211.698 123.935C209.67 119.743 207.343 114.942 204.989 110.397C201.396 103.461 197.73 97.1262 194.944 94.4855C192.25 91.9353 192.168 87.7121 194.756 85.0579C197.349 82.4037 201.63 82.3177 204.324 84.8725C210.712 90.9225 217.728 105.41 223.918 118.193C226.713 123.971 230.508 131.812 232.045 133.779C235.882 136.157 255.944 142.582 272.772 147.298C276.369 148.307 278.453 151.996 277.429 155.537Z" fill="#FFB287"/>
<path d="M174.81 233.378C174.013 234.939 173.251 236.387 172.499 237.735C171.347 239.81 170.223 241.637 169.04 243.252C167.276 245.648 165.391 247.569 163.095 249.096C154.493 254.84 141.454 255.882 133.704 255.957L132.982 255.962C132.32 255.967 131.684 255.972 131.067 255.972C122.195 255.972 117.763 255.354 113.091 254.698C111.452 254.47 109.752 254.233 107.787 254.016C103.662 253.562 100.694 249.891 101.155 245.826C101.622 241.762 105.336 238.832 109.467 239.292C111.647 239.534 113.457 239.786 115.202 240.028C120.004 240.699 123.804 241.228 132.842 241.144L133.564 241.139C138.602 241.095 143.83 240.092 145.069 239.341C145.345 239.173 145.665 238.847 146.021 238.403C147.756 236.244 150.332 231.255 152.117 227.758C153.987 224.103 156.047 225.412 159.756 227.249C160.854 227.792 162.779 228.232 164.895 228.677C169.953 229.728 176.129 230.805 174.81 233.378Z" fill="#FFB287"/>
<path d="M172.499 237.735C171.347 239.809 170.223 241.637 169.04 243.252C164.163 244.793 156.668 245.267 146.021 238.402C147.756 236.243 150.332 231.254 152.117 227.757C153.987 224.102 156.047 225.411 159.756 227.248C160.854 227.791 162.779 228.231 164.895 228.676L172.499 237.735Z" fill="#E5785C"/>
<path d="M156.249 184.491C153.751 185.302 153.562 191.512 154.385 193.973L160.75 213.012C161.573 215.473 164.096 216.403 166.357 215.079L200.159 207.237C204.621 205.788 220.707 188.926 216.818 177.294L209.7 172.101C208.87 169.642 206.148 168.293 203.65 169.104L156.249 184.491Z" fill="#406D11"/>
<path d="M146.061 227.749C146.088 227.227 146.224 226.741 146.471 226.306L151.336 218.454C156.803 207.143 147.776 197.065 147.962 184.365C148.079 176.311 169.84 167.846 177.766 165.872C185.691 163.899 190.391 152.663 192.394 160.472C197.326 179.704 203.22 193.655 195.707 211.012C191.754 220.144 172.56 240.732 172.56 240.732C170.725 243.938 163.414 243.315 156.217 239.333C156.211 239.33 156.205 239.326 156.199 239.323C155.372 238.87 154.581 238.385 153.837 237.886C149.827 235.205 147.053 232.028 146.277 229.38C146.107 228.81 146.031 228.261 146.061 227.749Z" fill="#3E5910"/>
<path d="M195.359 180.651C195.359 184.036 194.711 190.363 190.366 194.905C186.02 199.447 176.075 187.778 176.075 187.778L179.714 180.647L195.359 180.651Z" fill="#D33939"/>
<path d="M147.976 177.615V181.253C147.976 181.994 147.976 182.721 147.98 183.433C147.985 185.55 148.005 178.929 148.102 180.76C148.548 189.618 149.033 192.681 160.296 201.359C161.74 202.472 163.713 204.414 165.785 206.192C167.536 207.683 169.642 209.801 172.562 212.516L180.645 199.767C180.645 199.767 197.076 196.479 189.023 188.003C187.669 186.579 186.35 185.303 185.055 184.165C183.478 182.784 181.94 181.612 180.436 180.651V180.647C175.813 177.697 171.485 176.717 167.221 177.616C164.941 178.099 162.02 178.257 159.143 178.252C153.467 178.246 147.976 177.615 147.976 177.615Z" fill="#406D11"/>
<path d="M210.768 98.743L206.643 176.51C206.643 176.51 190.602 179.355 175.297 180.738C173.162 180.936 171.036 181.104 168.971 181.228C157.682 181.909 148.182 181.391 147.982 177.735C147.977 177.696 147.977 177.656 147.977 177.617C147.977 168.844 149.962 166.987 151.812 161.123C151.837 161.039 151.862 160.956 151.892 160.871C152.99 157.31 154.037 152.267 154.574 143.43V97.7898C154.574 87.4018 156.374 82.0477 163.172 80.0668C163.502 79.9632 163.848 79.8741 164.199 79.79C166.199 79.3306 168.586 79.1186 171.428 79.1186L192.944 81.2596C201.475 81.3233 210.768 87.2291 210.768 98.743Z" fill="#F23D3D"/>
<path d="M173.858 79.1146H178.983H183.618H189.003C190.03 79.1485 202.557 82.2563 203.641 93.4618C204.249 99.7316 204.88 103.665 194.92 103.665H193.679C185.344 103.665 184.161 97.4436 182.603 91.4601C180.339 82.7663 178.917 81.1331 176.631 79.9362C174.577 78.861 173.858 79.1146 173.858 79.1146Z" fill="#FFB287" stroke="white" stroke-width="6.5544" stroke-miterlimit="10"/>
<path d="M172.598 79.117H172.427C172.427 79.117 172.489 79.1142 172.598 79.117Z" fill="#FFB287"/>
<path d="M210.223 220.604C206.662 225.79 201.107 230.58 199.085 230.695C195.184 230.914 194.932 233.414 191.851 230.58C191.347 230.111 187.097 225.852 186.573 225.369C178.811 218.266 173.144 213.065 169.739 209.91C168.206 208.491 167.24 207.587 166.663 207.037C166.265 206.665 165.999 206.406 165.839 206.244C160.095 200.536 159.852 191.822 165.266 185.98C170.016 180.851 179.063 178.862 186.461 185.273C186.767 185.535 187.068 185.803 187.068 185.803C187.597 186.272 188.082 186.768 188.528 187.29C189.605 188.294 191.342 189.905 194.141 192.481C197.043 195.148 201.084 198.853 206.706 204.001C207.259 204.503 211.562 208.911 212.018 209.465C214.312 212.247 213.115 216.397 210.223 220.604Z" fill="#406D11"/>
<path d="M210.221 220.604L203.304 221.4L199.469 215.68C194.842 211.876 180.249 198.679 177.717 195.952C176.69 194.845 177.201 192.445 178.74 190.464L178.755 190.449C180.996 187.569 185.403 185.584 190.385 189.743C191.438 190.622 196.115 189.308 197.539 190.252C198.125 190.79 199.038 191.862 200.131 193.24C204.472 198.728 211.631 209.041 212.016 209.466C214.357 212.059 213.114 216.396 210.221 220.604Z" fill="#4C9B0E"/>
<path d="M201.878 195.503C200.13 193.24 196.958 193.58 190.501 192.161C181.73 190.233 180.154 189.027 178.755 190.449C181.102 186.603 185.403 185.584 190.385 189.743C191.438 190.622 196.115 189.308 197.539 190.251C198.126 190.79 201.446 192.983 201.878 195.503Z" fill="#406D11"/>
<path d="M213.641 212.642C213.736 215.374 212.127 219.212 209.199 222.961C208.658 223.662 208.061 224.359 207.43 225.035L207.409 225.05C206.011 226.556 204.542 227.86 203.073 228.927C202.653 229.234 202.231 229.525 201.815 229.787C197.95 232.277 194.316 233.013 192.471 231.363C190.772 229.822 191.007 226.596 192.772 222.946C193.103 222.249 193.494 221.538 193.935 220.822C194.872 219.295 196.045 217.744 197.429 216.242C197.459 216.203 197.494 216.158 197.535 216.124C198.201 215.408 198.888 214.731 199.579 214.114C200.021 213.713 200.582 213.656 201.028 213.296C201.038 213.291 201.379 213.625 201.195 213.173C204.213 210.752 207.174 209.612 209.384 208.942C209.452 208.922 209.52 208.927 209.585 208.927C210.152 208.902 210.688 208.963 211.148 209.144C211.324 209.213 211.576 209.619 211.947 209.954C212.318 210.285 213.08 210.725 213.271 211.204C213.456 211.679 213.62 212.059 213.641 212.642Z" fill="#445413"/>
<path d="M231.161 276.618C230.579 276.767 228.088 277.651 227.511 277.651C224.243 277.651 225.065 283.153 223.817 280.022C221.075 273.136 218.358 257.439 215.912 245.944C214.533 239.474 207.074 233.438 201.815 229.788C201.475 229.551 201.098 229.289 200.702 229.002C197.89 226.992 193.93 223.979 192.772 222.946C193.103 222.25 193.493 221.539 193.935 220.822C194.872 219.296 196.045 217.745 197.429 216.243C197.459 216.203 197.494 216.159 197.534 216.124C198.2 215.408 198.887 214.732 199.579 214.114C200.02 213.714 207.695 209.135 209.384 208.942C209.399 208.942 209.419 208.937 209.434 208.937C209.489 208.932 209.534 208.928 209.585 208.928C210.151 208.903 210.678 208.962 211.154 209.096C211.896 209.757 212.622 210.41 213.33 211.042C226.067 222.437 227.852 224.922 229.476 229.288C230.253 231.347 229.942 231.624 232.428 244.072C234.589 254.889 235.571 264.333 236.479 267.934C237.447 271.783 235.071 275.67 231.161 276.618Z" fill="#FFB287"/>
<path d="M211.276 209.205C206.208 214.085 202.627 221.528 200.702 229.002C197.89 226.991 193.93 223.978 192.772 222.946C193.103 222.249 193.493 221.538 193.935 220.822C194.872 219.295 196.045 217.744 197.429 216.242C197.459 216.203 197.494 216.158 197.534 216.124C198.2 215.408 198.846 214.683 199.579 214.114C204.182 210.538 207.695 209.135 209.384 208.942C209.399 208.942 209.419 208.937 209.434 208.937C210.208 208.859 211.093 208.938 211.276 209.205Z" fill="#E5785C"/>
<path d="M220.073 266.196C220.073 266.196 222.528 276.233 223.762 283.101C224.361 286.442 227.912 289.805 231.152 290.163C231.707 290.224 232.264 290.22 232.832 290.153C236.737 289.67 240.775 286.816 240.07 282.905C238.752 275.575 237.006 268.459 235.284 261.241L220.073 266.196Z" fill="white"/>
<path d="M222.358 287.441C222.381 287.605 222.406 287.738 222.42 287.843C222.836 290.71 223.503 293.773 224.28 296.394C224.566 297.366 224.863 298.274 225.171 299.093C226.134 301.67 227.149 303.344 227.968 303.123C228.891 304.198 272.252 287.875 274.113 287.204C275.975 286.534 276.972 284.323 275.925 281.14C275.846 280.904 275.76 280.681 275.667 280.476C275.33 279.7 274.898 279.101 274.399 278.644C272.153 276.6 268.553 277.5 265.792 278.297C265.132 278.484 264.517 278.675 263.978 278.81C262.554 279.172 261.293 279.318 260.112 279.298C259.339 279.284 258.603 279.203 257.888 279.072L257.882 279.071C257.012 278.91 256.165 278.681 255.309 278.398C254.155 278.031 252.98 277.583 251.686 277.136C251.23 276.975 250.753 276.813 250.257 276.654C250.089 276.603 249.928 276.546 249.768 276.489C249.079 276.258 248.457 276.007 247.887 275.75C246.972 275.338 246.19 274.901 245.513 274.464L245.506 274.463C245.342 274.354 245.184 274.246 245.026 274.137C244.547 273.799 244.113 273.459 243.712 273.136C241.818 271.578 240.648 270.23 238.203 269.961C235.32 269.649 230.726 271.314 230.123 274.225C230.085 274.415 230.062 274.607 230.057 274.807C230.035 275.901 230.772 278.07 231.008 280.042C231.189 281.501 231.093 282.852 230.218 283.593C227.269 286.082 225.526 284.307 224.535 282.109C224.535 282.103 224.535 282.103 224.536 282.096C223.679 280.186 223.397 277.976 223.397 277.976C221.815 278.569 221.713 282.695 222.358 287.441Z" fill="#D94647"/>
<path d="M225.171 299.093C226.134 301.67 227.149 303.345 227.968 303.124C228.891 304.199 272.252 287.875 274.113 287.205C275.975 286.535 276.972 284.323 275.925 281.14C275.846 280.905 275.76 280.681 275.667 280.477C265.47 284.001 225.171 299.093 225.171 299.093Z" fill="#F7BFC2"/>
<path d="M239.036 277.628C240.937 277.203 242.874 276.586 244.815 276.022C242.882 277.262 241.381 278.743 242.036 280.048C242.762 281.496 244.815 280.218 245.673 279.768C246.755 279.213 248.206 278.712 249.565 278.122C249.005 279.435 248.733 280.897 248.655 282.386C248.623 282.953 249.312 283.308 249.744 282.967C252.357 280.849 254.655 279.767 257.882 279.073C257.012 278.912 256.165 278.682 255.309 278.399C253.425 279.002 251.784 279.826 250.123 281.011C250.348 279.584 250.811 278.24 251.686 277.137C251.23 276.976 250.753 276.814 250.257 276.655C250.089 276.604 249.928 276.548 249.768 276.491C248.638 276.982 247.356 277.373 246.544 277.808C245.861 278.181 243.688 279.011 243.541 279.183C244.679 277.862 246.211 276.624 247.887 275.752C246.972 275.34 246.19 274.903 245.513 274.466L245.506 274.465C243.84 274.929 242.17 275.458 240.525 275.906C241.663 274.922 243.362 274.461 245.026 274.139L243.712 273.138C241.41 273.701 239.247 274.604 238.279 276.747C238.084 277.179 238.578 277.727 239.036 277.628Z" fill="white"/>
<path d="M111.073 236.666C110.916 236.63 110.784 236.627 110.682 236.609C107.906 236.178 104.877 235.919 102.227 235.883C101.245 235.868 100.32 235.88 99.4735 235.927C96.8124 236.071 94.9741 236.514 94.9489 237.315C93.6929 237.845 96.7335 279.907 96.8322 281.773C96.9308 283.637 98.7026 285.157 101.949 285.107C102.19 285.103 102.421 285.088 102.638 285.062C103.452 284.976 104.129 284.755 104.693 284.434C107.22 282.985 107.397 279.49 107.432 276.779C107.445 276.132 107.439 275.525 107.466 275.002C107.53 273.617 107.749 272.44 108.098 271.383C108.329 270.69 108.611 270.05 108.933 269.443L108.935 269.437C109.329 268.699 109.78 268 110.282 267.309C110.947 266.373 111.692 265.44 112.47 264.4C112.747 264.034 113.032 263.651 113.319 263.248C113.413 263.112 113.511 262.982 113.609 262.854C114.017 262.298 114.424 261.808 114.822 261.367C115.462 260.659 116.086 260.077 116.683 259.59L116.685 259.584C116.832 259.466 116.977 259.355 117.122 259.242C117.57 258.906 118.007 258.61 118.42 258.34C120.397 257.072 121.9 257.973 122.837 255.846C123.936 253.338 123.681 248.732 121.151 247.371C120.985 247.284 120.814 247.209 120.629 247.148C122.524 247.489 119.621 246.821 120.629 247.148C119.225 246.901 120.912 243.803 121.352 244.799C125.604 254.429 118.137 244.611 118.143 244.614C120.155 244.378 115.974 240.235 115.974 240.235C115.871 238.645 115.184 237.607 111.073 236.666Z" fill="#D94647"/>
<path d="M126.971 241.201C126.971 241.201 124.581 242.798 124.581 248.021C124.581 253.244 126.971 256.074 126.971 256.074C125.061 256.09 123.781 255.915 122.838 255.847C121.165 255.727 120.512 255.659 119.553 255.633C118.493 255.609 115.794 255.44 112.849 254.237C108.482 252.453 110.562 239.566 113.849 239.772C115.801 239.898 115.946 239.939 118.449 240.428C119.506 240.635 126.971 241.201 126.971 241.201Z" fill="white"/>
<path d="M99.4735 235.928C96.8124 236.072 94.9741 236.515 94.9489 237.315C93.6929 237.845 96.7335 279.908 96.8322 281.773C96.9308 283.638 98.7026 285.157 101.949 285.108C102.19 285.103 102.421 285.089 102.638 285.062C102.232 274.887 99.4735 235.928 99.4735 235.928Z" fill="#F7BFC2"/>
<path d="M196.471 84.3159C196.471 84.3159 193.631 86.3579 187.155 86.3579C185.536 86.3579 182.951 85.5987 182.951 85.5987C182.951 85.5987 181.192 80.9264 178.983 79.9434C177.377 79.2286 177.581 79.0884 177.581 79.0884L183.487 65.1024L200.524 64.1836L196.471 84.3159Z" fill="#FFB287"/>
<path d="M197.366 78.2406C197.141 79.2399 192.489 77.2874 189.008 77.5745C185.519 77.8626 181.606 78.2966 179.695 79.8865C179.412 80.1216 178.388 77.4443 178.191 78.3229C177.549 81.1778 181.226 60.4524 181.226 60.4524L201.219 61.0881L197.366 78.2406Z" fill="#E5785C"/>
<path d="M184.708 75.2622C185.026 76.88 184.969 77.7541 189.917 77.5017C198.19 77.0799 208.044 76.3184 211.008 66.4825C213.655 57.6987 193.049 61.9305 193.049 61.9305C193.049 61.9305 187.735 64.809 186.503 67.2195C185.271 69.63 184.708 75.2622 184.708 75.2622Z" fill="#E5785C"/>
<path d="M113.847 238.409C115.736 239.064 115.671 238.951 115.945 239.94C116.266 241.092 114.336 241.615 107.896 240.938C101.455 240.261 100.985 238.484 100.985 238.484L113.847 238.409Z" fill="#D94647"/>
<path d="M121.097 250.073C122.092 252.099 126.935 254.574 120.238 254.808C113.542 255.042 108.979 254.118 108.857 249.559C108.734 245 109.39 240.919 113.205 241.216C117.02 241.513 121.097 250.073 121.097 250.073Z" fill="white"/>
<path d="M147.962 175.454V183.433H147.981L178.234 180.651C171.718 180.651 166.333 179.896 159.144 178.251C155.879 177.505 152.24 176.578 147.962 175.454Z" fill="#D33939"/>
<path d="M180.436 180.646V180.65C175.958 180.65 167.032 181.735 159.673 183.595C158.707 183.839 157.771 184.092 156.874 184.365C152.304 185.732 149.197 188.514 148.517 190.45C146.927 180.532 147.962 175.454 147.962 175.454C151.047 176.267 153.803 176.975 156.32 177.581C157.295 177.821 158.237 178.045 159.144 178.251C159.173 178.256 159.202 178.26 159.231 178.27C166.6 179.728 173.916 180.646 180.436 180.646Z" fill="#445413"/>
<path d="M195.407 218.663C194.8 219.471 194.253 220.283 193.772 221.086C186.99 214.848 174.828 204.289 169.545 199.709L168.647 198.93C167.915 198.295 167.163 197.683 166.362 197.033C162.564 193.954 158.353 190.546 156.873 184.365C156.519 182.893 156.32 181.262 156.32 179.441V177.582C157.295 177.821 158.237 178.045 159.144 178.251C159.173 178.256 159.202 178.261 159.231 178.27V179.441C159.231 180.98 159.386 182.352 159.673 183.595C160.895 188.896 164.471 191.788 168.211 194.819C168.992 195.455 169.802 196.11 170.574 196.779L171.471 197.554C177.113 202.453 188.572 212.401 195.407 218.663Z" fill="white"/>
<path d="M159.231 179.441V178.27C159.202 178.261 159.173 178.256 159.144 178.251C158.237 178.046 157.295 177.821 156.32 177.582V179.441C156.32 181.262 156.519 182.893 156.873 184.365C157.77 184.092 158.707 183.839 159.672 183.595C159.386 182.352 159.231 180.98 159.231 179.441Z" fill="#F2E7E1"/>
<path d="M214.377 30.0112C214.377 31.4392 214.377 32.1531 214.377 33.5811C214.377 36.0119 214.377 38.4785 214.377 38.4785C214.377 39.887 214.177 40.7208 212.47 40.7208C211.027 40.7208 211.473 34.8141 209.566 34.8141C204.586 34.8141 199.607 34.8141 194.628 34.8141C187.898 34.8544 171.227 34.6057 169.248 42.9273C169.175 41.8385 169.139 41.2941 169.066 40.2053C168.977 38.8633 168.932 38.1927 168.843 36.8507C168.799 36.1941 168.777 35.8659 168.734 35.2093C168.701 34.707 168.685 34.456 168.652 33.9536C170.281 25.6442 188.199 26.1013 194.628 26.0738C199.607 26.0738 204.586 26.0738 209.566 26.0738C210.563 26.0738 211.47 26.1438 212.215 26.3876C213.535 26.8198 214.377 27.8132 214.377 30.0112Z" fill="#D2324B"/>
<path d="M213.234 38.3749C213.174 39.2933 213.144 39.7531 213.084 40.6715C212.907 43.3411 212.755 44.6745 212.74 47.3464C210.477 39.0283 194.134 39.277 187.263 39.2359C182.282 39.2359 177.301 39.2359 172.32 39.2359C170.413 39.2359 170.859 45.138 169.416 45.138C167.71 45.138 167.509 44.3037 167.509 42.8957C167.509 42.8957 167.509 41.4872 167.509 39.7518C167.509 37.6221 167.509 36.5577 167.509 34.428C167.509 33.5445 167.646 32.8535 167.896 32.3159C168.397 31.2361 169.359 30.7709 170.586 30.5936C171.118 30.5168 171.701 30.4905 172.32 30.4905C177.301 30.4905 182.282 30.4905 187.263 30.4905C188.25 30.4905 189.439 30.5172 190.749 30.576C194.221 30.7315 198.587 31.1276 202.542 31.899C205.647 32.5045 208.501 33.3432 210.476 34.4822C212.265 35.5136 213.339 36.7964 213.234 38.3749Z" fill="#AF1E3A"/>
<path d="M168.585 46.4994C168.837 51.7749 169.819 61.7288 177.198 61.6868C181.066 61.6646 184.312 56.3951 184.172 55.1584C184.033 53.9213 182.638 46.6369 181.522 46.2245C180.406 45.8117 168.585 46.4994 168.585 46.4994Z" fill="#8E3925"/>
<path d="M179.688 59.1406C178.917 57.6155 178.412 62.4283 178.432 61.8821C178.717 54.3346 168.754 56.0035 168.689 48.0115C168.615 38.8931 168.06 38.2632 167.748 33.6489C166.737 18.7044 181.829 16.0303 193.715 15.9425C200.593 15.8915 206.847 18.0202 209.419 24.6743C212.301 32.1278 212.149 40.7239 210.414 48.5975C200.158 52.0701 189.927 55.6165 179.688 59.1406Z" fill="#8E3925"/>
<path d="M213.07 54.7546C213.09 60.144 212.743 68.1369 207.648 71.1782C206.202 72.0414 205.354 73.9206 202.378 74.5966C199.164 75.3264 197.828 76.0765 197.45 77.8707C197.147 79.319 194.754 75.2857 193.806 74.9583C187.806 72.8851 183.368 73.2921 179.048 67.8073C175.845 63.7401 174.304 57.8687 174.247 52.7986C175.837 47.9039 176.632 45.4563 178.223 40.5616C178.128 31.0381 185.208 22.9927 195.112 23.084C204.784 23.1736 213.255 30.1939 213.184 40.0977C212.756 44.9734 212.84 49.8717 213.07 54.7546Z" fill="#E5785C"/>
<path d="M213.446 39.7025C213.392 41.3253 213.365 42.1365 213.311 43.7589C213.168 48.1589 213.034 50.1982 213.765 54.7623C218.11 72.7585 206.279 81.5653 192.788 79.6974C179.751 77.8924 180.469 62.696 180.58 49.2703C180.831 45.7253 180.956 43.9528 181.207 40.4079C181.207 40.0335 181.207 39.6582 181.229 39.3059C181.191 29.5242 186.005 21.1619 196.666 21.1406C207.765 21.1189 213.986 29.1761 213.446 39.7025Z" fill="#FFB287"/>
<path d="M180.776 48.3366C181.05 52.1425 179.087 55.4116 176.39 55.6382C173.694 55.8647 171.286 52.9636 171.012 49.1577C170.738 45.3514 172.241 42.3888 174.912 41.919C177.582 41.4492 180.503 44.5307 180.776 48.3366Z" fill="#E5785C"/>
<path d="M210.984 27.1504C210.999 27.1847 211.019 27.2146 211.034 27.2489C211.013 27.2295 210.989 27.2096 210.969 27.1847C209.836 29.8127 207.289 31.4821 205.093 31.5165C198.952 31.62 194.927 26.1375 188.982 26.6363C187.343 26.7746 185.172 27.461 183.718 29.4817C182.781 30.7808 182.144 32.6329 182.134 35.2459C182.114 40.1953 182.144 48.9579 180.881 50.0937C180.269 50.6422 178.66 48.8344 178.66 48.8344C178.66 44.9865 178.079 42.8328 175.592 41.687C176.043 40.6199 176.269 40.0864 176.715 39.0197C176.73 35.4336 177.762 31.9714 179.652 29.0024C180.675 27.4022 181.943 25.9449 183.442 24.6901C181.467 22.2697 180.78 18.5402 181.171 18.3232C186.781 15.2213 195.939 15.8485 203.263 16.8862C207.344 17.4641 211.289 20.5017 211.425 24.5228C211.455 25.3621 211.32 26.2415 210.984 27.1504Z" fill="#A34C31"/>
<path d="M213.466 30.9079C213.466 33.4237 213.466 39.6491 213.466 39.6491C213.466 36.2136 211.409 35.7112 208.655 35.7112C203.676 35.7112 198.696 35.7112 193.717 35.7112C190.868 35.7112 186.436 36.0164 182.152 36.6128C177.847 37.212 169.147 38.2954 168.338 43.8244C168.099 40.2347 167.98 38.44 167.742 34.8503C168.723 29.1236 178.038 28.2564 182.502 27.7237C186.715 27.2214 190.987 26.9704 193.717 26.9704C198.696 26.9704 203.676 26.9704 208.655 26.9704C211.409 26.9704 213.466 27.4682 213.466 30.9079Z" fill="#E5785C"/>
<path d="M211.774 27.4904C216.757 22.6708 214.667 17.5943 211.774 12.3917C211.774 12.3917 203.177 21.0701 201.583 21.1411C199.99 21.2121 204.305 27.4908 204.305 27.4908C207.292 27.4904 208.787 27.4904 211.774 27.4904Z" fill="#A34C31"/>
<path d="M208.591 27.7124C211.803 22.2661 210.934 15.1128 205.603 11.1953C200.903 16.4639 188.652 16.0452 186.342 16.3839C184.031 16.7225 196.349 25.1369 201.3 29.3086C204.216 28.6701 205.675 28.3509 208.591 27.7124Z" fill="#A34C31"/>
<path d="M210.984 27.1504C210.999 27.1847 211.019 27.2146 211.034 27.2489C211.013 27.2295 210.989 27.2096 210.968 27.1847C209.835 29.8127 207.289 31.4821 205.093 31.5165C198.952 31.62 194.927 26.1375 188.982 26.6363C187.343 26.7746 185.172 27.461 183.718 29.4817C182.129 29.5161 180.766 29.4668 180.224 29.309C180.044 29.2548 179.848 29.1462 179.652 29.0029C178.906 28.4743 178.159 27.4913 178.159 27.4913C178.159 27.4913 178.74 24.6065 179.201 24.3004C179.663 23.9943 181.929 22.1083 181.929 22.1083C182.502 23.529 183.192 24.1525 185.363 24.1968C187.533 24.2411 197.769 24.1968 204.161 24.1968C205.743 24.1968 207.133 24.1304 208.338 24.1923C211.034 24.3311 211.32 26.2415 210.984 27.1504Z" fill="#8E3925"/>
<path d="M213.466 29.5622C213.466 32.0781 213.466 38.303 213.466 38.303C213.466 34.8675 211.409 34.3656 208.655 34.3656C203.676 34.3656 198.696 34.3656 193.717 34.3656C190.868 34.3656 186.436 34.6712 182.152 35.2667C177.847 35.8659 169.147 36.9493 168.338 42.4783C168.099 38.8886 167.98 37.094 167.742 33.5042C168.723 27.7775 178.038 26.9103 182.502 26.3776C186.715 25.8753 190.987 25.6243 193.717 25.6243C198.696 25.6243 203.676 25.6243 208.655 25.6243C211.409 25.6248 213.466 26.1221 213.466 29.5622Z" fill="#D2324B"/>
<path d="M168.585 45.0453C168.689 48.011 165.886 54.1004 163.616 53.3529C163.616 53.3529 168.175 57.2009 170.98 55.6508C170.324 52.4952 169.996 50.9171 169.339 47.7614C169.037 46.6749 168.887 46.1318 168.585 45.0453Z" fill="#8E3925"/>
<path d="M182.152 35.2672C177.787 35.8215 169.147 36.9497 168.338 42.4788C168.099 38.889 167.98 37.0944 167.742 33.5046C168.723 27.778 177.98 26.8655 182.502 26.3781C182.252 26.9388 182.227 27.7432 182.038 28.9658C181.721 31.0164 182.161 31.4279 182.152 35.2672Z" fill="#AF1E3A"/>
<path d="M214.377 31.3921C214.377 32.2675 214.377 32.7052 214.377 33.5806C214.19 33.0557 213.88 32.6894 213.466 32.4366C212.781 32.0188 211.782 31.8986 210.476 31.8986C204.435 31.8986 198.393 31.8986 192.351 31.8986C191.145 31.8986 187.035 31.9524 182.074 32.6207C182.037 32.0871 181.997 31.6657 181.969 31.2841C185.624 30.7908 188.813 30.6262 190.749 30.5755C191.472 30.5565 192.019 30.5529 192.351 30.5529C198.393 30.5529 204.435 30.5529 210.476 30.5529C211.545 30.5529 212.583 30.6289 213.466 30.9431C213.794 31.0603 214.099 31.204 214.377 31.3921Z" fill="white"/>
<path d="M182.074 32.6211C181.683 32.6749 181.29 32.7324 180.891 32.7916C174.923 33.6756 170.754 35.1103 168.843 36.8507C168.497 37.1645 168.224 37.4909 168.028 37.8237C167.751 38.2935 167.509 39.2051 167.509 39.7522C167.509 38.5178 167.509 37.9011 167.509 36.6666C167.509 36.3307 167.76 35.9938 167.9 35.8686C168.156 35.6407 168.434 35.4187 168.733 35.2093C171.546 33.2474 176.377 32.1192 180.681 31.4645C181.118 31.398 181.546 31.3388 181.97 31.285C181.997 31.6657 182.038 32.0876 182.074 32.6211Z" fill="#CDC8D6"/>
<path d="M223.799 175.839C222.872 177.453 221.963 178.882 221.073 180.148C215.603 187.957 212.116 185.461 207.72 186.189C201.231 187.27 196.022 187.605 191.053 187.265C181.737 186.637 173.266 183.653 158.774 178.819C158.517 178.738 158.256 178.652 157.994 178.57C157.843 178.521 157.696 178.471 157.549 178.426C155.236 177.666 152.763 176.92 150.101 176.174C147.935 175.572 170.476 142.279 173.881 139.304C177.286 136.329 186.629 128.837 189.318 127.001C192.012 125.17 198.822 121.037 200.139 118.826C201.451 116.61 210.239 94.1871 210.239 94.1871C210.482 95.3446 210.652 96.4525 210.803 97.5196C211.762 104.406 213.525 110.601 215.58 116.33C219.407 126.996 224.253 136.049 226.851 144.938C229.622 154.429 229.576 165.824 223.799 175.839Z" fill="#F23D3D"/>
<path d="M221.075 180.151C221.07 180.161 221.059 180.171 221.054 180.18C220.212 181.385 219.385 182.438 218.573 183.366C214.156 188.444 210.241 189.704 206.531 190.321C200.401 191.339 195.543 191.25 190.997 190.405C190.992 190.405 190.982 190.4 190.977 190.4C183.833 189.066 177.447 185.871 168.088 182.206C168.083 182.206 168.072 182.201 168.067 182.201C165.355 181.134 162.388 180.033 159.079 178.921C158.979 178.891 158.879 178.857 158.778 178.822C158.879 178.852 158.984 178.886 159.084 178.916C172.799 183.07 192.275 182.463 207.815 181.297C212.421 180.951 216.677 180.551 220.337 180.215C220.589 180.195 220.834 180.17 221.075 180.151Z" fill="#FFB287"/>
<path d="M229.852 182.199C228.637 180.305 224.583 179.56 210.354 180.773C196.124 181.986 206.956 174.094 208.277 171.529C209.599 168.964 220.591 126.803 225.574 141.055C229.468 152.191 229.685 154.274 230.27 166.211C230.665 174.267 229.852 182.199 229.852 182.199Z" fill="#F23D3D"/>
<path d="M197.678 44.4905C196.943 45.7253 196.346 48.0517 193.511 47.969C190.677 47.8862 190.072 45.3586 190.782 44.0293C191.491 42.6999 197.678 44.4905 197.678 44.4905Z" fill="#F58D6C"/>
<path d="M212.618 44.4905C211.883 45.7253 211.286 48.0517 208.451 47.969C205.617 47.8862 205.013 45.3586 205.722 44.0293C206.432 42.6999 212.618 44.4905 212.618 44.4905Z" fill="#F58D6C"/>
<path d="M177.671 65.7798C179.445 70.8486 175.206 77.8585 169.61 78.2763L179.781 79.0888L180.802 72.7608C180.802 72.7608 180.171 66.9206 179.199 65.7798C178.228 64.6394 177.671 65.7798 177.671 65.7798Z" fill="#E5785C"/>
<path d="M202.675 57.3202C204.405 57.3465 205.848 56.3512 205.772 55.375C205.745 55.0196 205.385 54.5914 204.711 54.9039C204.401 55.0472 203.566 55.2149 202.678 55.2095C201.789 55.2041 201.308 55.0282 200.806 54.8799C199.713 54.5566 199.368 54.9807 199.34 55.3357C199.264 56.3105 200.943 57.2773 202.675 57.3202Z" fill="#E5785C"/>
<path d="M192.942 47.9138C192.942 48.7413 193.628 49.4173 194.475 49.4236C195.321 49.4304 196.007 48.7643 196.007 47.9373C196.007 47.1099 195.321 46.4343 194.475 46.428C193.629 46.4212 192.942 47.0868 192.942 47.9138Z" fill="#422B27"/>
<path d="M206.47 48.1458C206.47 48.9732 207.159 49.6497 208.042 49.6565C208.924 49.6632 209.622 48.9977 209.593 48.1702C209.563 47.3423 208.856 46.6658 208.005 46.6595C207.153 46.6527 206.47 47.3183 206.47 48.1458Z" fill="#422B27"/>
<path d="M190.782 43.4898C193.578 43.4342 194.861 43.4093 197.678 43.3533" stroke="#8E3925" stroke-width="5.462" stroke-miterlimit="10" stroke-linecap="round"/>
<path d="M206.238 43.6069C208.613 43.7756 209.801 43.8606 212.176 44.0293" stroke="#8E3925" stroke-width="5.462" stroke-miterlimit="10" stroke-linecap="round"/>
<path d="M198.228 64.5829C198.735 64.2619 200.392 63.5949 202.051 63.5877C203.716 63.5809 204.538 64.1841 204.879 64.5829L202.055 65.2729" stroke="#E5785C" stroke-width="4.3696" stroke-miterlimit="10" stroke-linecap="round" stroke-linejoin="round"/>
<path d="M184.706 85.4264C186.009 87.5258 196.507 86.3601 196.507 86.3601C196.482 84.078 197.685 82.4728 199.344 81.2231C199.52 81.0892 199.695 80.9613 199.88 80.8378C201.454 79.7757 203.334 78.9708 204.948 78.1854C204.984 78.1705 205.013 78.156 205.049 78.1411C205.47 77.9336 205.866 77.731 206.237 77.5234C207.199 76.9899 207.591 76.6937 207.66 76.4912C207.856 75.9427 205.68 76.0462 205.921 73.7153C205.921 73.7153 197.695 76.0467 192.261 77.6623C191.484 77.8942 190.767 78.1117 190.135 78.3043C188.927 78.6697 188.045 78.9564 187.714 79.0897C187.364 79.2331 186.982 79.4949 186.596 79.8358C186.386 80.0235 186.175 80.236 185.975 80.4679C184.752 81.8846 183.819 83.989 184.706 85.4264Z" fill="#FFB287"/>
<path d="M179.939 79.6965C181.067 78.8817 182.606 78.1705 186.25 79.6965C186.365 79.7458 186.481 79.7906 186.596 79.8349C189.855 81.129 194.707 81.9587 199.344 81.2231C199.52 81.0892 199.695 80.9613 199.88 80.8378C201.454 79.7757 203.334 78.9708 204.948 78.1854C204.984 78.1705 205.014 78.156 205.049 78.1411C205.47 77.9336 205.866 77.731 206.237 77.5234C207.199 76.9899 207.591 76.6937 207.66 76.4911C204.307 78.2939 197.941 79.4203 192.261 77.6618C192.01 77.5876 191.76 77.5035 191.514 77.4149C182.481 74.1792 180.802 64.729 180.505 59.2062C180.505 59.2062 181.433 75.9183 181.318 76.8814C181.257 77.3647 179.573 78.4685 179.053 79.2986C178.83 79.6559 179.478 80.1795 179.478 80.1795C179.478 80.1795 179.151 80.2685 179.939 79.6965Z" fill="#E5785C"/>
<path d="M201.025 67.5749C202.215 67.5315 202.843 67.3872 203.714 67.1829C204.585 66.9785 205.044 67.6888 204.254 68.2396C203.347 68.8717 202.259 69.2217 200.91 69.1597C200.168 69.1254 199.526 68.9332 198.972 68.6293C198.13 68.1677 198.214 67.177 198.98 67.3447C199.489 67.456 200.375 67.5984 201.025 67.5749Z" fill="#F58D6C"/>
<path d="M225.882 180.422C225.872 180.496 225.857 180.57 225.842 180.644C225.421 182.625 224.574 184.383 223.326 185.895C218.398 191.882 207.189 193.995 190.997 190.405C190.992 190.405 190.982 190.4 190.977 190.4C184.52 188.967 188.526 187.288 187.869 184.942L202.522 183.193L204.537 182.951L207.816 181.296L207.921 181.242C212.974 180.842 217.134 180.387 220.338 180.215C220.583 180.2 220.824 180.19 221.054 180.18C223.1 180.091 224.714 180.141 225.882 180.422Z" fill="#FFB287"/>
<path d="M225.882 180.422C225.872 180.496 225.857 180.57 225.842 180.644C225.421 182.625 224.574 184.383 223.325 185.895C224.101 184.542 223.2 183.476 221.075 182.952C217.696 182.122 210.587 182.467 205.455 182.951C204.522 183.04 203.54 183.119 202.522 183.193C190.962 183.998 174.514 183.711 168.088 182.205C168.083 182.205 168.073 182.2 168.068 182.2C165.356 181.133 162.388 180.032 159.08 178.92L159.085 178.915C172.8 183.069 192.275 182.462 207.815 181.296L207.92 181.242C212.973 180.842 217.134 180.387 220.337 180.214C220.588 180.194 220.833 180.17 221.074 180.15C221.069 180.16 221.059 180.17 221.054 180.18C223.1 180.091 224.714 180.141 225.882 180.422Z" fill="#D36853"/>
<path d="M174.371 181.52C172.697 181.397 171.063 181.278 169.474 181.155C161.292 180.522 154.269 179.772 148.484 177.662C146.755 177.035 145.136 176.284 143.632 175.38C143.632 175.38 149.958 167.102 152.314 161.051C152.319 161.036 152.324 161.027 152.329 161.012C152.354 160.948 152.374 160.878 152.394 160.8C153.492 157.238 154.539 152.195 155.076 143.358V111.899C159.813 106.623 165.288 103.778 166.46 104.124C170.396 105.27 166.219 154.135 165.779 158.063C163.601 177.509 177.725 181.767 174.371 181.52Z" fill="#C62433"/>
<path d="M156.063 99.1623C156.063 99.1623 156.063 103.397 156.063 108.232C156.063 114.997 158.852 118.822 165.627 118.822C179.453 118.822 177.008 99.6208 174.748 90.7534C172.511 81.9673 166.661 79.1182 164.322 79.7924C159.428 80.9111 156.856 83.5065 155.644 88.091C154.955 90.6674 156.063 95.2424 156.063 99.1623Z" fill="#FFB287"/>
<path d="M165.627 120.304C156.48 120.304 154.56 113.74 154.56 108.232V99.1623C154.56 97.6873 154.391 96.0758 154.227 94.5172C153.958 91.9529 153.703 89.5311 154.19 87.713C155.555 82.5511 158.936 80.8948 164.026 79.2991C164.365 79.1928 166.264 78.7262 166.659 78.7262C168.572 78.7262 169.263 79.3222 171.189 81.1756C172.804 82.7288 174.984 85.5887 176.207 90.3921C177.289 94.6356 180.375 109.046 174.658 116.269C172.539 118.947 169.501 120.304 165.627 120.304ZM165.058 81.1792C164.891 81.1792 164.79 81.2014 164.745 81.214L164.662 81.2353C160.39 82.2115 158.199 84.3059 157.098 88.464C156.751 89.7636 156.978 91.924 157.218 94.212C157.39 95.8452 157.567 97.534 157.567 99.1618V108.232C157.567 114.531 160.053 117.34 165.627 117.34C168.567 117.34 170.745 116.394 172.286 114.447C174.828 111.235 176.426 103.419 173.289 91.1137C172.238 86.9818 170.424 84.5817 169.088 83.2958C167.464 81.734 165.902 81.1792 165.058 81.1792Z" fill="white"/>
<path opacity="0.6" d="M154.697 97.79V102.847C154.697 103.058 154.697 122.39 154.702 122.596C168.761 122.596 167.026 83.3378 167.026 83.3378L164.092 83.308C157.295 85.2916 154.697 87.4024 154.697 97.79Z" fill="#E5785C"/>
<path d="M116.184 158.798C119.569 158.798 122.616 156.484 123.369 153.092C127.269 135.533 132.837 118.705 135.879 114.552C143.378 109.777 152.13 109.067 167.297 96.6559C170.425 94.0967 171.968 87.2486 169.61 83.9853C167.094 80.5046 162.184 79.621 158.569 81.4591C153.097 84.2431 134.186 95.3654 126.534 100.696C120.391 104.974 119.764 114.237 116.201 126.94C113.032 138.238 110.667 148.854 110.569 149.301C109.699 153.215 110.631 157.772 114.603 158.628C115.133 158.743 115.663 158.798 116.184 158.798Z" fill="#FFB287"/>
<path d="M112.868 151.05C110.121 150.825 107.288 152.788 106.575 155.413L105.546 159.193C104.832 161.817 106.276 164.937 108.755 166.128L115.496 169.365C117.975 170.555 120.505 169.362 121.12 166.714L123.417 156.818C124.031 154.17 122.286 151.82 119.538 151.595L112.868 151.05Z" fill="#FFB287"/>
<path d="M128.648 162.015C128.314 161.014 128.075 158.925 127.603 157.1C127.487 156.574 127.359 156.051 127.176 155.545C126.601 152.915 124.814 150.389 122.127 149.252C121.527 148.998 118.786 150.119 119.437 150.212C120.057 150.301 119.528 151.03 119.194 151.726C118.653 151.154 120.165 151.072 119.905 150.259C119.443 148.811 117.575 149.066 117.063 150.13C117.051 150.115 117.039 150.099 117.027 150.084C116.886 149.91 116.692 149.867 116.514 149.898C116.497 149.847 116.475 149.798 116.46 149.746C116.275 149.125 115.308 149.437 115.493 150.056C116.144 152.235 117.743 153.877 119.613 155.201C119.656 155.239 119.695 155.279 119.74 155.316C120.407 155.886 122.621 155.933 123.641 156.746C123.697 159.558 124.813 163.712 126.009 164.394C127.955 165.502 129.543 164.701 128.648 162.015Z" fill="#FFB287"/>
<path d="M123.825 149.164C123.622 149.863 122.196 151.066 119.923 151.164C117.649 151.261 111.619 151.127 110.374 150.416C110.206 150.319 112.007 143.506 112.007 143.506C112.007 143.506 121.531 146.871 121.445 146.74C121.358 146.61 123.825 149.164 123.825 149.164Z" fill="#E5785C"/>
<path d="M115.469 166.027C114.909 167.939 115.313 168.334 114.929 169.092C114.545 169.851 114.666 171.644 116.728 172.361C118.79 173.078 119.766 172.547 121.01 167.189C122.253 161.832 118.668 162.322 118.668 162.322L115.469 166.027Z" fill="#FFB287"/>
<path d="M114.487 148.561C113.849 148.395 113.472 147.765 113.645 147.153L114.878 142.8C115.051 142.189 115.708 141.828 116.346 141.994L121.89 143.436C122.528 143.602 122.905 144.232 122.731 144.844L121.499 149.197C121.326 149.808 120.668 150.169 120.03 150.003L114.487 148.561Z" fill="#C1BFE2"/>
<path d="M119.954 149.028C119.823 149.028 119.673 149.005 119.494 148.959L115.497 147.919C115.117 147.82 114.891 147.69 114.785 147.508C114.683 147.332 114.682 147.084 114.782 146.73L115.634 143.721C115.802 143.13 115.965 142.949 116.331 142.949C116.474 142.949 116.654 142.978 116.882 143.038L120.88 144.078C121.285 144.183 121.51 144.307 121.61 144.479C121.707 144.644 121.702 144.888 121.594 145.268L120.743 148.276C120.555 148.939 120.239 149.028 119.954 149.028Z" fill="#4F4351"/>
<path d="M116.331 143.085C116.462 143.085 116.631 143.113 116.848 143.169L120.845 144.209C121.206 144.303 121.411 144.41 121.491 144.546C121.566 144.676 121.557 144.893 121.461 145.23L120.609 148.239C120.438 148.841 120.181 148.891 119.954 148.891C119.835 148.891 119.696 148.87 119.529 148.826L115.532 147.786C115.196 147.699 114.991 147.586 114.906 147.44C114.824 147.299 114.828 147.078 114.916 146.765L115.768 143.757C115.945 143.13 116.099 143.085 116.331 143.085ZM116.331 142.813C115.866 142.813 115.672 143.082 115.502 143.684L114.65 146.692C114.432 147.458 114.644 147.837 115.461 148.05L119.459 149.09C119.641 149.137 119.805 149.164 119.954 149.164C120.402 149.164 120.702 148.925 120.876 148.312L121.728 145.304C121.952 144.514 121.787 144.172 120.916 143.945L116.919 142.905C116.684 142.845 116.492 142.813 116.331 142.813Z" fill="#C1BFE2"/>
<path d="M121.445 149.389C121.445 149.389 121.794 149.16 122.285 149.288C122.776 149.415 124.046 149.746 124.046 149.746C124.046 149.746 124.838 150.016 125.448 147.862L125.435 147.908C126.045 145.755 125.219 145.605 125.219 145.605C125.219 145.605 123.948 145.274 123.458 145.146C122.967 145.018 122.787 144.651 122.787 144.651L121.445 149.389Z" fill="#D14D2A"/>
<path d="M113.59 147.346C113.59 147.346 113.41 146.978 112.919 146.85C112.428 146.722 111.158 146.392 111.158 146.392C111.158 146.392 110.332 146.242 110.942 144.088L110.929 144.134C111.539 141.98 112.331 142.251 112.331 142.251C112.331 142.251 113.601 142.581 114.092 142.709C114.583 142.837 114.932 142.607 114.932 142.607L113.59 147.346Z" fill="#D14D2A"/>
<path opacity="0.7" d="M116.075 142.487L121.933 144.012C122.319 144.112 122.609 144.375 122.757 144.702C122.84 144.137 122.48 143.589 121.891 143.436L116.347 141.994C115.722 141.831 115.081 142.176 114.893 142.765C115.201 142.494 115.641 142.375 116.075 142.487Z" fill="white"/>
<path opacity="0.8" d="M120.297 149.532L114.439 148.007C114.053 147.907 113.763 147.644 113.615 147.317C113.532 147.882 113.892 148.43 114.481 148.583L120.025 150.025C120.65 150.188 121.29 149.843 121.479 149.254C121.171 149.524 120.731 149.644 120.297 149.532Z" fill="#FFB287"/>
<path d="M178.836 77.8137C167.221 77.8137 162.433 79.6595 160.44 80.524C155.467 82.6813 152.086 85.0298 152.086 85.0298C152.086 85.0298 164.61 77.5442 179.433 80.2012C179.433 80.2012 179.01 77.4005 184.424 76.7602C189.837 76.1195 184.962 75.1509 184.355 75.2703C183.749 75.3897 185.273 75.4046 185.273 75.4046L178.836 77.8137Z" fill="#E5785C"/>
<path d="M273.266 272.462C270.129 270.619 265.326 272.654 262.923 273.339C258.922 274.478 258.272 275.395 257.544 277.448C257.4 277.855 273.651 272.689 273.266 272.462Z" fill="#F7BFC2"/>
<path d="M327.634 120.129L266.513 149.099C263.976 150.162 262.603 153.145 263.462 155.726L333.074 128.533L333.407 121.96C332.249 120.025 329.847 119.201 327.634 120.129Z" fill="#A8BDCC"/>
<path d="M364.484 347.816C363.076 349.777 360.79 350.938 358.354 350.938H294.118C289.968 350.938 286.599 347.623 286.599 343.528C286.599 339.439 289.968 336.119 294.118 336.119H347.912C334.036 293.264 326.587 244.507 326.938 200.872C327.028 189.269 327.675 178.026 328.898 167.357C328.933 167.026 328.993 166.705 329.078 166.394C329.961 162.843 333.41 160.402 337.209 160.822C340.418 161.183 342.924 163.48 343.661 166.394C343.876 167.229 343.942 168.113 343.841 169.017C342.693 179.039 342.077 189.723 341.986 200.872C341.861 217.488 342.909 235.127 345.115 253.116C348.89 283.82 355.922 314.237 365.452 341.083C366.254 343.351 365.893 345.86 364.484 347.816Z" fill="#8A9099"/>
<path d="M343.841 169.017C342.693 179.039 342.077 189.723 341.987 200.872H326.938C327.028 189.269 327.675 178.026 328.898 167.357C328.933 167.026 328.993 166.705 329.078 166.394H343.661C343.876 167.229 343.942 168.113 343.841 169.017Z" fill="#5C5866"/>
<path d="M365.365 346.69C365.181 347.083 364.956 347.459 364.699 347.816C363.29 349.778 361.005 350.936 358.569 350.936H335.344V346.69H365.365Z" fill="#5C5866"/>
<path d="M358.674 347.815C357.266 349.776 354.98 350.937 352.544 350.937H288.308C284.152 350.937 280.789 347.622 280.789 343.528C280.789 339.438 284.152 336.119 288.308 336.119H342.102C339.124 326.921 336.442 317.457 334.071 307.825H349.576C352.503 319.334 355.877 330.488 359.637 341.083C360.444 343.35 360.083 345.859 358.674 347.815Z" fill="#47454C"/>
<path d="M219.764 347.216C218.355 349.177 216.07 350.338 213.633 350.338H48.6323C44.4766 350.338 41.1129 347.023 41.1129 342.928C41.1129 338.839 44.4766 335.519 48.6323 335.519H102.426C99.4483 326.322 98.4741 323.559 96.103 313.927L112.257 316.092C115.184 327.601 216.967 329.888 220.726 340.483C221.534 342.751 221.173 345.26 219.764 347.216Z" fill="#47454C"/>
<path d="M349.576 307.825H334.071C324.421 268.641 319.885 226.764 321.398 189.525C321.474 187.633 321.564 185.756 321.674 183.889C321.995 178.342 322.451 172.909 323.053 167.614C323.063 167.525 323.073 167.441 323.083 167.357C323.093 167.268 323.103 167.179 323.123 167.09C323.715 163.163 327.354 160.372 331.399 160.822C334.859 161.207 337.505 163.85 337.991 167.09C338.087 167.712 338.102 168.359 338.027 169.016C337.631 172.459 337.3 175.976 337.034 179.567C335.355 202.012 336.122 227.199 339.305 253.116C341.59 271.698 345.069 290.182 349.576 307.825Z" fill="#5C5866"/>
<path d="M389.356 137.844C389.216 139.845 388.409 141.914 387.131 143.204L370.598 160.329C370.598 160.329 367.56 163.031 366.217 163.648C365.62 163.925 364.908 164.251 364.106 164.621C354.923 168.855 333.628 178.664 329.191 180.704C327.827 181.337 326.705 181.5 325.782 181.386L325.747 181.42H251.496L267.838 164.621L293.88 137.845L307.45 125.927L381.455 123.979C383.34 124.009 385.059 125.189 385.711 127.111L389.04 134.975C389.331 135.838 389.431 136.836 389.356 137.844Z" fill="#5C5866"/>
<path d="M364.106 164.621C354.923 168.854 333.628 178.664 329.191 180.704C327.827 181.336 326.705 181.499 325.782 181.385L325.747 181.42H251.496L267.838 164.621H364.106Z" fill="#47454C"/>
<path d="M389.376 137.864H293.9L307.719 123.998H381.476C383.361 124.028 385.08 125.209 385.732 127.13L389.06 134.994C389.351 135.858 389.452 136.856 389.376 137.864Z" fill="#8C9899"/>
<path d="M378.15 317.769V320.683C378.15 321.394 378.109 322.091 378.034 322.783C376.972 332.795 368.35 340.619 357.917 340.619L276.998 340.604C276.432 340.604 275.876 340.584 275.324 340.545C264.953 339.804 256.766 332.212 256.766 321.904L266.181 312.528L280.172 298.599H357.657C358.007 298.58 358.358 298.569 358.709 298.569C363.928 298.569 368.815 300.55 372.465 304.146C374.856 306.497 376.545 309.377 377.432 312.528C377.904 314.207 378.15 315.966 378.15 317.769Z" fill="#47454C"/>
<path opacity="0.2" d="M378.034 322.783C376.972 332.795 368.35 340.619 357.917 340.619L276.998 340.604C276.432 340.604 275.876 340.584 275.324 340.545C280.177 335.299 284.995 330.444 284.995 330.444H355.511C367.207 330.444 376.716 330.607 377.433 324.185C377.503 323.568 377.713 323.108 378.034 322.783Z" fill="#7FB4DD"/>
<path d="M377.431 312.528H266.179L280.17 298.599H357.655C358.006 298.579 358.356 298.57 358.707 298.57C363.926 298.57 368.814 300.55 372.463 304.146C374.854 306.497 376.543 309.377 377.431 312.528Z" fill="#8C9899"/>
<path d="M49.3252 347.581C39.845 347.581 32.1324 340.078 32.1324 330.856C32.1324 321.4 40.0419 313.301 49.7648 312.802C49.7648 312.802 274.231 301.27 281.392 300.902C281.637 300.889 281.883 300.883 282.126 300.883C290.641 300.883 297.311 308.298 297.311 317.764V320.728C297.311 330.502 292.364 338.348 286.049 338.589L50.0236 347.568C49.7905 347.577 49.5565 347.581 49.3252 347.581Z" fill="#B9BAC0"/>
<path d="M282.125 303.6C289.015 303.6 294.554 309.838 294.554 317.764V320.728C294.554 328.878 290.678 335.694 285.941 335.875C281.205 336.056 273.827 336.336 269.547 336.5C265.266 336.662 255.002 337.053 246.737 337.367L49.9166 344.853C49.7189 344.861 49.5206 344.865 49.3247 344.865C41.3304 344.865 34.8894 338.677 34.8894 330.856C34.8894 322.843 41.6474 315.94 49.9079 315.515L238.244 305.836C246.504 305.412 256.695 304.889 260.89 304.674C265.084 304.46 274.375 303.983 281.535 303.615C281.733 303.604 281.93 303.6 282.125 303.6ZM282.126 298.166C281.834 298.166 281.539 298.174 281.247 298.189C274.088 298.557 264.798 299.034 260.604 299.248C256.409 299.463 246.218 299.986 237.957 300.41L49.6207 310.089C38.4572 310.663 29.3754 319.978 29.3754 330.856C29.3754 336.102 31.4606 341.008 35.2464 344.67C38.9978 348.299 43.9979 350.298 49.3251 350.298C49.5917 350.298 49.8625 350.293 50.1296 350.282L246.95 342.796L269.76 341.929L286.155 341.304C290.375 341.143 294.267 338.461 296.835 333.945C298.92 330.278 300.068 325.584 300.068 320.728V317.764C300.068 312.631 298.3 307.796 295.088 304.149C291.69 300.291 287.087 298.166 282.126 298.166Z" fill="#6B7680"/>
<path d="M282.126 309.033C285.938 309.033 289.04 312.95 289.04 317.764V320.728C289.04 326.598 286.624 330.061 285.66 330.448L269.334 331.07L246.524 331.938L49.7047 339.424C49.578 339.429 49.4504 339.431 49.3247 339.431C44.3223 339.431 40.4034 335.664 40.4034 330.856C40.4034 325.754 44.8872 321.214 50.1947 320.941L238.531 311.262C246.791 310.838 256.981 310.315 261.176 310.1C265.371 309.886 274.662 309.409 281.823 309.041C281.923 309.036 282.025 309.033 282.126 309.033ZM282.125 303.6C281.93 303.6 281.733 303.605 281.536 303.614C274.376 303.983 265.085 304.46 260.89 304.674C256.695 304.889 246.505 305.411 238.245 305.836L49.9079 315.515C41.6479 315.94 34.8894 322.843 34.8894 330.856C34.8894 338.677 41.3304 344.864 49.3247 344.864C49.5206 344.864 49.7189 344.861 49.9167 344.853L246.737 337.367C255.002 337.053 265.267 336.662 269.547 336.499C273.827 336.336 281.205 336.055 285.941 335.874C290.678 335.693 294.554 328.877 294.554 320.727V317.763C294.554 309.838 289.015 303.6 282.125 303.6Z" fill="#47454C"/>
<path d="M49.0915 339.707C54.283 339.707 58.4914 335.56 58.4914 330.445C58.4914 325.329 54.283 321.182 49.0915 321.182C43.9001 321.182 39.6917 325.329 39.6917 330.445C39.6917 335.56 43.9001 339.707 49.0915 339.707Z" fill="#6D7D84"/>
<path opacity="0.3" d="M277.33 336.203L261.765 336.795C258.556 326.482 255.714 315.857 253.263 305.064L268.517 304.284C271.073 315.25 274.026 325.944 277.33 336.203Z" fill="#47454C"/>
<path opacity="0.3" d="M259.753 330.412H187.389C181.637 330.412 176.973 335.007 176.973 340.675C176.973 346.343 181.637 350.938 187.389 350.938H266.179L259.753 330.412Z" fill="#47454C"/>
<path d="M292.183 346.69C291.999 347.083 291.774 347.459 291.517 347.816C290.109 349.778 287.823 350.936 285.387 350.936H221.151C217.003 350.936 213.635 347.621 213.635 343.529C213.635 339.437 217.003 336.118 221.151 336.118H274.947C261.07 293.262 253.622 244.505 253.971 200.871C254.063 189.268 254.71 178.028 255.93 167.357C255.967 167.026 256.027 166.705 256.114 166.393C256.995 162.844 260.446 160.402 264.246 160.823C267.453 161.184 264.773 164.096 265.512 167.013C265.728 167.845 265.613 169.957 265.512 170.861C264.365 180.885 269.11 189.721 269.023 200.871C268.894 217.488 269.945 235.127 272.148 253.114C275.924 283.821 282.959 314.238 292.486 341.083C293.142 342.932 293.018 344.949 292.183 346.69Z" fill="#8A9099"/>
<path d="M270.876 169.017C269.728 179.039 269.112 189.723 269.021 200.872H253.972C254.063 189.269 254.709 178.026 255.932 167.357C255.967 167.026 256.028 166.705 256.113 166.394H270.695C270.911 167.229 270.976 168.113 270.876 169.017Z" fill="#5C5866"/>
<path d="M264.329 176.309H273.339L272.086 168.656L264.329 176.309Z" fill="#47454C"/>
<path d="M292.183 346.69C291.999 347.083 291.774 347.459 291.517 347.816C290.109 349.778 287.823 350.936 285.387 350.936H262.162V346.69H292.183Z" fill="#5C5866"/>
<path d="M269.134 336.12C251.568 281.867 244.297 218.166 250.117 167.356C250.582 163.29 254.294 160.364 258.432 160.825C262.559 161.284 265.526 164.952 265.061 169.018C262.202 193.976 262.644 223.056 266.338 253.115C270.113 283.82 277.143 314.239 286.672 341.083C287.476 343.349 287.117 345.859 285.706 347.817C284.296 349.775 282.01 350.939 279.574 350.939" fill="#646870"/>
<path d="M257.896 162.998L254.238 163.292L237.053 164.687L197.8 167.922C197.691 167.93 197.584 167.934 197.476 167.934C195.483 167.934 193.793 166.424 193.627 164.432C193.59 163.978 193.635 163.536 193.752 163.119C194.113 161.806 195.172 160.754 196.546 160.423C196.55 160.423 196.55 160.419 196.554 160.419C196.571 160.415 196.591 160.407 196.608 160.407C196.791 160.366 196.973 160.337 197.164 160.321L241.928 156.641C241.928 156.641 241.932 156.641 241.932 156.637L254.059 155.655L254.952 155.585H254.956L255.305 155.557L257.261 155.397C259.395 155.225 261.259 156.789 261.437 158.887C261.611 160.985 260.025 162.826 257.896 162.998Z" fill="#47454C"/>
<path d="M256.023 156.902C256.119 157.941 255.38 158.857 254.358 159.025C254.308 159.034 254.25 159.042 254.2 159.046L237.298 160.515L195.665 164.109C195.607 164.113 195.548 164.117 195.49 164.117C194.755 164.117 194.095 163.72 193.751 163.119C194.112 161.806 195.171 160.754 196.545 160.423C196.549 160.423 196.549 160.419 196.553 160.419C196.57 160.415 196.59 160.407 196.607 160.407C196.79 160.366 196.972 160.337 197.163 160.321L241.927 156.641C241.927 156.641 241.931 156.641 241.931 156.637L254.059 155.655L254.951 155.585H254.955L255.304 155.557C255.704 155.879 255.974 156.354 256.023 156.902Z" fill="#5C5866"/>
<path d="M254.495 162.449C254.487 162.781 254.396 163.059 254.238 163.292L237.053 164.687C236.668 163.394 237.149 161.934 237.98 160.604C239.096 158.804 240.844 157.241 241.928 156.64C241.928 156.64 241.932 156.64 241.932 156.636C242.21 156.485 242.439 156.391 242.605 156.374C242.605 156.374 242.609 156.374 242.613 156.374L253.927 155.393C253.943 155.393 253.96 155.389 253.977 155.389C254.006 155.483 254.031 155.568 254.06 155.654C254.189 156.108 254.238 156.415 254.238 156.415C254.238 156.415 254.342 157.676 254.421 159.169C254.474 160.277 254.52 161.513 254.495 162.449Z" fill="#47454C"/>
<path d="M302.95 132.83L286.418 149.955C286.418 149.955 283.38 152.657 282.037 153.274C274.588 156.707 254.037 172.767 249.33 175.212C246.434 176.717 240.908 164.374 233.049 165.017C230.267 165.245 236.921 161.988 237.416 161.658L293.901 136.118C295.866 135.298 294.431 135.593 295.689 137.085C296.056 137.519 300.59 129.916 300.786 130.499L303.626 130.334C304.498 132.912 304.87 130.884 302.95 132.83Z" fill="#47454C"/>
<path d="M312.726 143.203L296.193 160.328C296.193 160.328 293.156 163.03 291.812 163.647C284.363 167.08 259.609 178.486 254.787 180.704C249.097 183.327 247.553 177.888 247.553 177.888L241.162 160.614C241.092 160.407 241.037 160.195 241.002 159.982C240.531 157.562 241.879 154.969 244.21 153.986L305.332 125.016C307.298 124.196 309.413 124.749 310.671 126.241C311.037 126.675 311.333 127.184 311.528 127.767L314.636 134.974C315.508 137.552 314.646 141.257 312.726 143.203Z" fill="#646870"/>
<path d="M312.212 129.354C312.212 129.354 311.044 126.059 306.869 128.081C302.694 130.104 241.001 159.982 241.001 159.982C240.53 157.561 241.878 154.968 244.209 153.985L306.505 124.28C308.471 123.46 311.061 124.983 312.212 129.354Z" fill="#8C9899"/>
<path d="M272.558 328.534H193.575C187.296 328.534 182.206 333.549 182.206 339.736C182.206 345.923 187.296 350.939 193.575 350.939H279.573L272.558 328.534Z" fill="#646870"/>
<path opacity="0.8" d="M366.212 130.894C366.021 132.831 362.647 135.542 360.672 135.542H338.941C336.971 135.542 334.234 134.401 332.861 133.013L325.592 125.658C325.592 125.658 324.569 123.998 321.656 123.998H358.577L364.196 124.394L366.212 130.894Z" fill="#47454C"/>
<path d="M365.655 123.998L367.346 129.452C367.185 131.077 364.355 133.354 362.701 133.354H339.312C337.658 133.354 335.362 132.396 334.209 131.23L328.112 125.061C328.112 125.061 327.22 123.998 324.776 123.998C322.332 123.998 331.387 121.951 331.387 121.951L365.655 123.998Z" fill="#A8BDCC"/>
<path d="M367.375 129.157C367.213 130.78 365.728 132.107 364.073 132.107H341.673C340.019 132.107 337.722 131.151 336.567 129.984L328.548 121.871C327.394 120.703 327.803 119.748 329.457 119.748H365.308C366.962 119.748 368.183 121.075 368.021 122.698L367.375 129.157Z" fill="#CAD8E5"/>
<path d="M52.3401 330.444C52.3405 333.169 50.0571 335.378 47.2404 335.378C44.4238 335.378 42.1404 333.169 42.1399 330.445C42.1399 327.72 44.4229 325.511 47.2395 325.511C50.0567 325.511 52.3401 327.719 52.3401 330.444Z" fill="#47454C"/>
<path d="M343.3 174.207H336.627L335.412 182.363H340.137L343.3 174.207Z" fill="#5C5866"/>
<path d="M338.026 169.016C337.63 172.459 337.299 175.976 337.034 179.567C334.572 180.699 326.386 186.152 321.398 189.525C321.474 187.633 321.564 185.756 321.674 183.89C321.995 178.342 322.451 172.909 323.053 167.614C323.063 167.525 323.073 167.442 323.083 167.357C323.093 167.268 323.103 167.179 323.123 167.091H337.991C338.086 167.712 338.102 168.359 338.026 169.016Z" fill="#47454C"/>
<path d="M202.087 66.3943C201.911 66.4214 201.725 66.4399 201.524 66.4431C198.667 66.5308 197.124 66.6696 197.072 65.0871C197.065 64.9369 197.087 64.799 197.126 64.6706C197.676 62.8118 202.251 62.4347 203.595 63.6926C204.57 64.6046 204.112 66.1044 202.087 66.3943Z" fill="#8E2B30"/>
<path d="M202.087 66.3943C201.911 66.4214 201.725 66.44 201.524 66.4431C198.667 66.5308 197.124 66.6697 197.072 65.0871C197.065 64.937 197.087 64.799 197.126 64.6706C198.949 64.6313 201.156 64.9587 202.087 66.3943Z" fill="#FF6464"/>
<path d="M190.631 49.1098C192.886 48.6924 195.805 47.9717 197.438 49.1098C199.07 50.2479 195.06 51.8119 195.06 51.8119C191.467 52.4703 190.631 49.1098 190.631 49.1098Z" fill="#FFB287"/>
<path d="M204.062 49.6036C206.317 49.1862 209.236 48.4655 210.869 49.6036C212.501 50.7417 208.491 52.3057 208.491 52.3057C204.897 52.9645 204.062 49.6036 204.062 49.6036Z" fill="#FFB287"/>
</svg>
