<?xml version="1.0" encoding="utf-8"?>
<!-- Generator: Adobe Illustrator 27.5.0, SVG Export Plug-In . SVG Version: 6.00 Build 0)  -->
<svg version="1.1" xmlns="http://www.w3.org/2000/svg" xmlns:xlink="http://www.w3.org/1999/xlink" x="0px" y="0px"
	 viewBox="0 0 750 499.999" style="enable-background:new 0 0 750 499.999;" xml:space="preserve">
<g id="BACKGROUND">
	<g>
		<g>
			<rect x="0" y="-0.001" style="fill-rule:evenodd;clip-rule:evenodd;fill:#FFFFFF;" width="750" height="500"/>
		</g>
	</g>
</g>
<g id="OBJECTS">
	<g>
		<g>
			<path style="fill:#A6C450;" d="M346.758,228.959c0,0-10.277-33.016,8.456-44.795c18.728-11.785,27.145,2.328,22.368,17.815
				C372.79,217.447,346.758,228.959,346.758,228.959z"/>
			<path style="fill:#A6C450;" d="M347.264,247.142c0,0,9.912-27.355,27.905-26.675c17.985,0.674,16.346,14.252,5.495,22.605
				C369.816,251.424,347.264,247.142,347.264,247.142z"/>
			<path style="fill:#A6C450;" d="M332.062,209.445c-14.355-9.135-19.906,2.464-15.662,14.888
				c4.252,12.423,23.976,21.157,23.976,21.157S346.427,218.56,332.062,209.445z"/>
			<path style="fill:#A6C450;" d="M344.574,283.985c0,0,4.597-26.53,21.212-28.986c16.62-2.455,17.348,10.154,8.765,19.592
				C365.969,284.025,344.574,283.985,344.574,283.985z"/>
			<path style="fill:#A6C450;" d="M323.968,247.138c-15.806-6.296-19.243,6.073-12.844,17.453
				c6.402,11.378,27.452,16.298,27.452,16.298S339.783,253.421,323.968,247.138z"/>
			<path style="fill:#A6C450;" d="M343.016,318.078c0,0,6.619-26.139,23.336-27.265c16.721-1.118,16.471,11.539,7.212,20.277
				C364.3,319.831,343.016,318.078,343.016,318.078z"/>
			<path style="fill:#A6C450;" d="M315.878,285.409c-16.224-5.168-18.823,7.393-11.663,18.276
				c7.166,10.88,28.532,14.312,28.532,14.312S332.106,290.558,315.878,285.409z"/>
			<path style="fill:none;stroke:#698245;stroke-width:2;stroke-miterlimit:10;" d="M366.616,189.035
				c-4.492,7.502-19.773,29.57-21.879,51.954c-2.103,22.386,2.931,76.101-19.872,118.195"/>
			<path style="fill:none;stroke:#698245;stroke-width:2;stroke-miterlimit:10;" d="M375.759,230.439
				c0,0-28.606,14.12-31.778,22.565c0,0-7.592-20.498-19.835-32.99"/>
			<path style="fill:none;stroke:#698245;stroke-width:2;stroke-miterlimit:10;" d="M368.154,265.188
				c0,0-21.267,12.996-24.435,21.442c0,0-11-18.199-23.832-25.342"/>
			<path style="fill:none;stroke:#698245;stroke-width:2;stroke-miterlimit:10;" d="M362.22,303.198
				c0,0-21.263,12.995-24.436,21.441c0,0-10.997-18.199-23.832-25.342"/>
		</g>
		<g>
			<path style="fill:#A6C450;" d="M644.724,240.167c0,0,2.707-35.243,22.633-41.091c19.924-5.855,22.172,10.418,12.778,24.067
				C670.735,236.77,644.724,240.167,644.724,240.167z"/>
			<path style="fill:#A6C450;" d="M638.87,258.029c0,0,17.841-23.667,32.836-17.603c14.99,6.057,8.912,18.789-3.158,23.667
				C656.479,268.972,638.87,258.029,638.87,258.029z"/>
			<path style="fill:#A6C450;" d="M639.026,216.749c-8.994-13.208-17.7-3.577-18.4,9.798c-0.693,13.377,12.984,27.805,12.984,27.805
				S648.036,229.94,639.026,216.749z"/>
			<path style="fill:#A6C450;" d="M623.864,293.106c0,0,13.057-24.46,27.969-21.863c14.916,2.6,11.176,15.099,0.65,21.715
				C641.96,299.569,623.864,293.106,623.864,293.106z"/>
			<path style="fill:#A6C450;" d="M619.152,251.03c-11.203-10.878-18.386,0.138-16.901,13.143
				c1.488,13.004,17.606,24.117,17.606,24.117S630.368,261.898,619.152,251.03z"/>
			<path style="fill:#A6C450;" d="M610.767,325.844c0,0,14.633-23.472,29.172-19.549c14.54,3.932,9.955,16.184-0.9,21.915
				C628.177,333.942,610.767,325.844,610.767,325.844z"/>
			<path style="fill:#A6C450;" d="M599.083,285.878c-11.947-9.905-18.486,1.549-16.186,14.299
				c2.307,12.75,19.206,22.507,19.206,22.507S611.04,295.765,599.083,285.878z"/>
			<path style="fill:none;stroke:#698245;stroke-width:2;stroke-miterlimit:10;" d="M675.325,207.244
				c-6.395,5.958-26.953,22.865-36.469,44.034c-9.515,21.172-23.811,75.001-57.655,109.154"/>
			<path style="fill:none;stroke:#698245;stroke-width:2;stroke-miterlimit:10;" d="M668.76,250.316c0,0-29.092,5.164-34.694,12.437
				c0,0,0.656-22.245-5.391-38.087"/>
			<path style="fill:none;stroke:#698245;stroke-width:2;stroke-miterlimit:10;" d="M650.317,281.877c0,0-22.49,6.272-28.091,13.547
				c0,0-3.023-21.028-11.417-31.838"/>
			<path style="fill:none;stroke:#698245;stroke-width:2;stroke-miterlimit:10;" d="M632.162,317.118
				c0,0-22.487,6.272-28.091,13.547c0,0-3.021-21.027-11.417-31.838"/>
		</g>
		<g>
			<path style="fill:#A6C450;" d="M132.952,225.167c0,0-2.707-35.243-22.632-41.091c-19.923-5.855-22.172,10.418-12.778,24.067
				C106.94,221.77,132.952,225.167,132.952,225.167z"/>
			<path style="fill:#A6C450;" d="M138.805,243.029c0,0-17.84-23.667-32.836-17.603c-14.99,6.057-8.912,18.79,3.158,23.667
				C121.196,253.972,138.805,243.029,138.805,243.029z"/>
			<path style="fill:#A6C450;" d="M138.649,201.749c8.995-13.208,17.701-3.577,18.401,9.798
				c0.693,13.377-12.984,27.805-12.984,27.805S129.64,214.94,138.649,201.749z"/>
			<path style="fill:#A6C450;" d="M153.811,278.106c0,0-13.056-24.46-27.968-21.863c-14.917,2.6-11.176,15.099-0.65,21.715
				C135.716,284.569,153.811,278.106,153.811,278.106z"/>
			<path style="fill:#A6C450;" d="M158.523,236.03c11.203-10.878,18.386,0.138,16.901,13.143
				c-1.488,13.004-17.605,24.117-17.605,24.117S147.308,246.898,158.523,236.03z"/>
			<path style="fill:#A6C450;" d="M166.909,310.844c0,0-14.633-23.472-29.172-19.549c-14.54,3.932-9.955,16.184,0.901,21.915
				C149.499,318.942,166.909,310.844,166.909,310.844z"/>
			<path style="fill:#A6C450;" d="M178.592,270.878c11.948-9.905,18.487,1.549,16.186,14.299
				c-2.306,12.75-19.206,22.507-19.206,22.507S166.636,280.765,178.592,270.878z"/>
			<path style="fill:none;stroke:#698245;stroke-width:2;stroke-miterlimit:10;" d="M102.351,192.244
				c6.394,5.958,26.953,22.865,36.468,44.034c9.515,21.172,23.811,75.001,57.656,109.154"/>
			<path style="fill:none;stroke:#698245;stroke-width:2;stroke-miterlimit:10;" d="M108.916,235.316
				c0,0,29.092,5.164,34.694,12.438c0,0-0.656-22.245,5.391-38.087"/>
			<path style="fill:none;stroke:#698245;stroke-width:2;stroke-miterlimit:10;" d="M127.359,266.877c0,0,22.489,6.272,28.09,13.547
				c0,0,3.023-21.028,11.417-31.838"/>
			<path style="fill:none;stroke:#698245;stroke-width:2;stroke-miterlimit:10;" d="M145.514,302.118
				c0,0,22.488,6.272,28.091,13.547c0,0,3.021-21.027,11.417-31.838"/>
		</g>
		<path style="fill:#6DCAB8;" d="M412.001,391.667c0,0-49-33-40-57s33-6,33-6s-46-59-30-79s32,12,32,12s-9-60,9-74s28,16,28,16
			s12-63,32-65s23,47,23,47s15-31,33-18s1,52,1,52s19-15,32-6s-6,65-6,65s10-16,23-3s-34,118-34,118L412.001,391.667z"/>
		<path style="fill:#A7E3A4;" d="M103.001,405.667c0,0-31-9-28-31s23-27,23-27s-30-38-1-65s61,1,61,1s-11-45,16-56s36,31,36,31
			s11-33,33-29s18,23,18,23s36-26,59-7s15,45,15,45s10-34,35-21s31,127,31,127L103.001,405.667z"/>
		<path style="fill:#A7E3A4;" d="M461.001,385.667c0,0-22-32-7-50s34-16,34-16s-10-40,16-53c26-13,43,31,43,31s3-46,35-46
			s30,54,30,54s23-29,47-13s8,52,8,52s18-6,24,26s-35,39-35,39L461.001,385.667z"/>
	</g>
	<g>
		<ellipse style="fill:#E6E6E6;" cx="375" cy="411.521" rx="288.5" ry="27.5"/>
		<g>
			<g>
				<g>
					<path style="fill:#3A4A82;" d="M245.87,318.134c0,0,0.463-10.632,12.655-27.621c8.956-12.478,22.875-27.726,22.875-27.726
						l12.218,9.777c4.245,3.311,10.629,14.183,10.629,14.183s-1.325,5.898-3.808,10.582c-2.483,4.684-12.734,12.452-16.681,15.906
						c-6.854,5.996-13.705,17.515-13.705,17.515S250.116,326.914,245.87,318.134z"/>
					<g>
						<g>
							<path style="fill:#FFB68D;" d="M267.882,363.7l2.196,22.524c0,0-3.475,1.979-7.978,1.803
								c-4.502-0.18-6.736-3.354-6.736-3.354s0.444-11.252-0.61-17.054L267.882,363.7z"/>
							<g>
								<path style="fill:#B0ABB0;" d="M270.645,383.486c0.892,0.213,1.148,5.416,1.309,7.287c0.158,1.871,2.294,7.579-0.594,9.236
									c-1.988,1.142-6.309,1.453-7.945,1.592c-1.637,0.138-3.374-1.336-5.265-1.407c-1.891-0.076-4.871,0.884-5.553,1.177
									c-0.681,0.296-3.674,3.381-11.703,2.898c-7.369-0.452-9.94-3.318-8.749-6.674c0.913-2.564,5.288-4.59,9.011-6.086
									c2.801-1.125,6.563-3.148,7.869-4.438c1.303-1.29,4.642-6.52,5.823-5.205c1.181,1.31,5.018,5.995,7.635,6.144
									c1.758,0.1,3.733-0.829,4.933-1.941C268.866,384.725,270.14,383.364,270.645,383.486z"/>
								<path style="fill:none;stroke:#5E5E63;stroke-miterlimit:10;" d="M272.179,396.729c0,0-2.988,1.906-7.434,2.282
									c-4.44,0.381-7.3-1.585-10.261-0.391c-2.961,1.192-5.904,2.706-10.071,3.448c-5.105,0.902-9.337-1.797-9.337-1.797"/>
								<path style="fill:#787C7C;" d="M253.063,380.538c0,0,3.437,1.496,3.933,2.938c0.497,1.442-3.576,7.746-6.227,9.143
									c-2.655,1.401-8.074,2.108-9.628,0.514c-1.553-1.598,2.608-2.236,5.042-3.835
									C248.617,387.7,253.063,380.538,253.063,380.538z"/>
								<path style="fill:none;stroke:#C4CECF;stroke-miterlimit:10;" d="M254.17,389.5c0,0-4.496-1.648-7.402-1.074"/>
								<path style="fill:none;stroke:#C4CECF;stroke-miterlimit:10;" d="M250.769,392.619c0,0-0.885-4.777-1.602-6.418"/>
								<path style="fill:none;stroke:#C4CECF;stroke-miterlimit:10;" d="M246.45,394.319c0,0,0.218-3.789-1.499-4.537"/>
								<path style="fill:none;stroke:#C4CECF;stroke-miterlimit:10;" d="M248.929,393.557c0,0-3.307-2.972-5.806-2.632"/>
							</g>
						</g>
						<path style="fill:#3A4A82;" d="M250.159,349.672c0.892,5.826,4.508,25.768,4.508,25.768s1.967,2.524,7.158,2.001
							c5.191-0.528,7.837-2.176,7.837-2.176s1.502-14.207,1.91-21.284c0.299-5.21,4.92-17.82,4.5-24.265
							c-0.49-7.428-3.617-15.61-3.617-15.61s-24.829-3.138-26.366,2.337C244.555,321.917,248.509,338.892,250.159,349.672z"/>
					</g>
				</g>
				<path style="fill:#FAC4A8;" d="M304.138,231.422c0,0,6.299-4.995,7.488-6.432c1.186-1.436,2.427-3.778,2.427-3.778
					s-8.267-5.822-11.308-8.358c-3.043-2.535-11.307-7.833-14.534-13.15c-3.227-5.317-1.691-10.624,1.873-12.384
					c3.563-1.758,10.817-1.639,18.321,4.126c7.507,5.765,23.146,23.466,25.075,27.601c2.526,5.412-6.494,13.711-10.102,15.154
					c-3.608,1.443-15.702,7.558-16.958,6.855C305.166,240.355,304.138,231.422,304.138,231.422z"/>
				<g>
					<g>
						<g>
							<path style="fill:#FFB68D;" d="M354.602,335.129l19.429,11.604c0,0-0.473,3.972-3.287,7.488
								c-2.816,3.518-6.696,3.431-6.696,3.431s-8.794-7.038-14.086-9.634L354.602,335.129z"/>
							<g>
								<path style="fill:#B0ABB0;" d="M372.164,344.649c0.703-0.589,5.039,2.294,6.641,3.275c1.602,0.982,7.461,2.652,7.081,5.96
									c-0.262,2.279-2.577,5.937-3.436,7.339c-0.859,1.4-3.076,1.923-4.257,3.399c-1.184,1.479-2.181,4.446-2.351,5.167
									c-0.164,0.725,0.542,4.966-4.619,11.14c-4.732,5.662-8.567,6.028-10.559,3.079c-1.522-2.257-0.556-6.98,0.451-10.865
									c0.758-2.921,1.365-7.152,1.1-8.965c-0.265-1.815-2.491-7.606-0.733-7.776c1.758-0.171,7.807-0.477,9.479-2.497
									c1.125-1.354,1.55-3.494,1.366-5.121C372.105,346.819,371.765,344.985,372.164,344.649z"/>
								<path style="fill:none;stroke:#5E5E63;stroke-miterlimit:10;" d="M383.731,351.278c0,0-0.24,3.536-2.575,7.336
									c-2.331,3.801-5.61,4.935-6.407,8.028c-0.797,3.091-1.326,6.356-3.207,10.149c-2.298,4.645-6.986,6.448-6.986,6.448"/>
								<path style="fill:#787C7C;" d="M359.353,357.049c0,0,3.245-1.877,4.701-1.419c1.457,0.457,4.11,7.473,3.66,10.439
									c-0.447,2.967-3.095,7.747-5.3,8.049c-2.207,0.304-0.251-3.427-0.094-6.333
									C362.478,364.879,359.353,357.049,359.353,357.049z"/>
								<path style="fill:none;stroke:#C4CECF;stroke-miterlimit:10;" d="M367.225,361.481c0,0-3.997,2.637-5.261,5.316"/>
								<path style="fill:none;stroke:#C4CECF;stroke-miterlimit:10;" d="M367.713,366.069c0,0-4.371-2.126-6.115-2.522"/>
								<path style="fill:none;stroke:#C4CECF;stroke-miterlimit:10;" d="M366.517,370.551c0,0-2.92-2.425-4.54-1.486"/>
								<path style="fill:none;stroke:#C4CECF;stroke-miterlimit:10;" d="M367.378,368.106c0,0-4.354,0.896-5.565,3.109"/>
							</g>
						</g>
						<path style="fill:#3A4A82;" d="M348.969,326.39c-4.015-3.335-11.419-14.538-16.857-18.024
							c-1.446-0.927-3.008-1.76-4.556-2.501c-0.975-3.488-1.828-7.324-2.071-10.702c-0.374-5.232-0.393-18.094-2.634-22.898
							c-2.24-4.804-6.145-9.417-6.145-9.417s-12.525-1.461-17.728-0.069l-15.165,3.854c0,0,3.773,20.299,8.332,34.966
							c3.84,12.359,6.174,17.817,11.487,23.015c5.313,5.198,19.502,11.38,29.157,16.452c5.218,2.74,23.414,11.67,23.414,11.67
							s3.2-0.087,5.857-4.576c2.657-4.491,2.9-7.597,2.9-7.597S354.422,330.919,348.969,326.39z"/>
					</g>
					<path style="fill:none;stroke:#5464A1;stroke-miterlimit:10;" d="M293.197,303.152c0,0-6.108-14.418-6.758-19.406
						c-0.651-4.986-1.825-10.75-1.825-10.75"/>
				</g>
				<path style="fill:#BD3C5B;" d="M314.681,250.308l3.297,14.602c0,0-12.23,5.555-24.776,6.511
					c-12.544,0.957-16.714-0.672-18.712-1.03c-1.24-6.606-0.919-14.239-2.848-19.836c-3.607-10.475-5.494-28.304-4.656-41.835
					c0.84-13.532,7.582-18.482,7.582-18.482s13.785-6.499,17.845-6.617c4.061-0.116,8.057,1.481,12.814,4.892
					c4.758,3.41,10.281,18.308,10.003,27.295C315.083,220.565,314.681,250.308,314.681,250.308z"/>
				<path style="fill:#FAC4A8;" d="M311.446,205.825c-4.329-5.545-13.74-3.177-17.652-0.49c-3.911,2.687-1.284,13.092-0.822,15.566
					c0.461,2.474,0.239,7.376,0.58,9.605c0.207,1.354-0.279,4.812-0.694,7.325c-2.381,0.27-7.039,1.637-12.052,7.722
					c-5.441,6.606-13.502,15.241-13.502,15.241l1.151,7.532c0,0,9.246-1.883,17.592-5.393c6.064-2.552,15.556-8.876,19.293-12.499
					c3.737-3.624,6.543-17.596,7.216-20.926C313.229,226.182,315.774,211.37,311.446,205.825z"/>
				<g>
					<path style="fill:none;stroke:#1D3B92;stroke-width:2;stroke-linecap:round;stroke-linejoin:round;stroke-miterlimit:10;" d="
						M255.614,266.825c2.701,1.574-3.804,8.857-5.459,11.397c-1.162,1.782-4.334,5.197-6.22,5.471"/>
					<g>
						<path style="fill:#FFC4A8;" d="M272.132,266.677c0,0-4.341,5.268-6.376,7.208c-2.035,1.939-4.187,2.911-5.661,2.479
							c-1.475-0.431-1.837-1.471-1.837-1.471s-2.238,1.379-3.591,0.702c-1.351-0.679-1.556-1.807-1.556-1.807
							s0.225,1.209-1.96,0.545c-2.186-0.665-3.268-5.086-2.268-5.08c1.001,0.005,3.337,0.272,5.071-1.086
							c1.73-1.363,3.445-3.028,3.445-3.028s-2.292,0.068-4.038,1.025c-1.747,0.956-4.134,2.819-5.045,1.255
							c-0.912-1.565,0.211-2.399,1.579-3.913c1.367-1.512,3.469-2.45,5.448-3.738c1.978-1.289,5.343-2.307,7.453-2.225
							c2.111,0.083,6.751,0.64,6.751,0.64L272.132,266.677z"/>
						<g>
							<path style="fill:none;stroke:#DC8C7A;stroke-miterlimit:10;" d="M259.653,271.032c0,0-4.822,3.26-8.146,3.221"/>
							<path style="fill:none;stroke:#DC8C7A;stroke-miterlimit:10;" d="M262.894,273.18c0,0-3.105,1.494-4.55,1.872"/>
						</g>
					</g>
					<path style="fill:none;stroke:#1D3B92;stroke-width:2;stroke-linecap:round;stroke-linejoin:round;stroke-miterlimit:10;" d="
						M243.935,283.693c-0.803,0.118-1.373-0.335-1.456-1.724c-0.276-4.652,10.045-17.321,12.748-15.746"/>
				</g>
				<path style="fill:none;stroke:#1D3B92;stroke-width:1.5;stroke-miterlimit:10;" d="M243.282,282.546
					c0,0-23.091,20.926-61.696,34.997c-19.679,7.172-41.491,6.134-41.491,6.134"/>
			</g>
			<g>
				<path style="fill:#FFC4A8;" d="M276.656,178.275l0.542,12.087c0,0,1.34,2.79,7.036,2.435c5.693-0.355,11.365-7.306,11.365-7.306
					l-8.389-14.883L276.656,178.275z"/>
				<g>
					<path style="fill:#FFC4A8;" d="M259.879,163.032c0.147-1.445-2.427-4.86,0.812-12.177c3.238-7.316,13.952-12.623,20.938-8.191
						c6.981,4.433,13.602,17.43,10.695,22.826c-2.906,5.4-6.141,7.193-8.868,9.91c-2.414,2.406-9.038,8.666-12.123,9.126
						c-3.084,0.456-3.448-2.523-4.777-3.445c-0.848-0.59-2.158-0.895-2.149-2.248c0.008-1.189-1.183-3.325-2.095-3.594
						c-0.784-0.229-1.586-1.38-1.209-1.971c0.378-0.592-0.231-1.527-0.479-1.756c-1.015-0.922-3.722-0.632-3.992-1.985
						C256.362,168.173,259.73,164.477,259.879,163.032z"/>
					<path style="fill:#412F00;" d="M263.931,161.939c1.012,0.066,1.8,0.956,1.737,1.972c-0.063,1.006-0.953,1.8-1.965,1.733
						c-1.008-0.063-1.799-0.958-1.739-1.963C262.026,162.669,262.919,161.876,263.931,161.939z"/>
					<path style="fill:#AB542B;" d="M271.515,138.137c4.059-1.083,10.913-2.243,16.506,1.894c5.592,4.14,5.953,9.471,5.953,9.471
						s5.651,4.248,3.518,11.906c-1.286,4.615-4.422,8.473-6.002,9.624c-1.575,1.151-3.627,5.703-5.107,5.424
						c-1.142-0.214-4.637-4.311-4.662-6.927c-0.029-2.617-4.345-7.345-4.345-7.345s-1.479,3.298-3.759,2.755
						c-2.28-0.543-1.201-4.067-2.56-5.551c-1.687-0.078-3.631-1.06-4.809-1.892c-1.883-1.329-4.228-4.47-4.228-4.47
						s-5.118-1.089-4.306-4.877c0.811-3.789,5.825-4.79,5.825-4.79S267.456,139.219,271.515,138.137z"/>
					<path style="fill:#FFC4A8;" d="M283.068,162.727c-0.969-2.1-3.162-2.978-4.931-2.363c-1.77,0.615-2.603,4.231-2.603,4.231
						s0.696,5.449,2.169,5.904C279.176,170.952,284.578,165.996,283.068,162.727z"/>
					<g>
						<path style="fill:#FFFFFF;" d="M270.148,171.128c0.927,0.954-0.146,4.723-1.844,6.419c-1.374,1.371-2.924,1.425-3.635,0.083
							c-0.712-1.342-1.652-2.778-1.652-2.778s2.078-0.691,3.554-1.738C268.047,172.063,269.222,170.174,270.148,171.128z"/>
					</g>
					<g>
						<g>
							<path style="fill:#AB542B;" d="M261.738,160.273c1.799-0.969,3.784-0.532,5.627,0.111c0.345,0.12,0.544-0.334,0.332-0.571
								c-1.761-1.974-4.487-2.321-6.64-0.704C260.378,159.62,260.954,160.695,261.738,160.273L261.738,160.273z"/>
						</g>
					</g>
					<path style="fill:none;stroke:#DC8C7A;stroke-miterlimit:10;" d="M276.649,181.686c0,0,5.516-3.715,6.989-6.802"/>
				</g>
			</g>
			<g>
				<path style="fill:#CD8F43;" d="M135.881,334.526c0,0-8.592,2.863-13.482,7.813c-2.01,2.034-4.451,5.167-7.461,7.765
					c-4.314,3.717-7.986,6.803-10.482,7.334c-2.471,0.522-8.304,0.19-8.88,2.397c-0.577,2.209,2.756,5.6,6.912,6.051
					c4.163,0.449,14.666-6.23,18.261-7.41c3.595-1.18,16.055-2.18,20.752-7.994C146.201,344.669,135.881,334.526,135.881,334.526z"
					/>
				<path style="fill:#CD8F43;" d="M189.109,325.257c6.677,1.34,12.045,6.89,13.168,13.596c1.125,6.706-0.626,13.143,2.93,14.629
					c3.561,1.486,12.103,5.822,14.538,8.313c2.429,2.495,5.097,12.29,4.886,17.955c-0.142,3.781-4.366,7.148-6.204,5.545
					c-1.839-1.604-0.143-4.63-1.469-8.019c-1.792-4.566-3.967-9.427-6.951-10.023c-5.188-1.044-34.593-6.015-36.633-21.234
					C171.337,330.797,182.435,323.918,189.109,325.257z"/>
				<path style="fill:#DCA448;" d="M233.24,307.692c-0.575,2.685-2.964,7.323-2.964,7.323c1.553-9.494-6.994-15.526-6.994-15.526
					s-0.074,13.558-6.619,20.12c-5.392,5.41-20.222,5.947-25.281,5.969c-7.165-2.682-32.247,2.636-41.746,0.883
					c-5.285-0.977-9.404-2.938-12.155-4.601c0.122-1.943,0.094-3.745-0.104-5.221c-1.011-7.49-10.355-11.287-10.355-11.287
					s-8.378-2.972-12.154-0.368c-3.776,2.603-3.255,6.378-6.373,6.853c-4.285,0.65-9.266-0.802-13.062,0.53
					c-3.795,1.332-0.455,10.285,4.899,10.71c2.673,0.209,4.552-0.678,5.646-0.9c1.093-0.223,4.42-1.973,4.42-1.973
					s-0.214,4.867-5.897,5.684c-0.863,0.124-0.451,2.274,1.428,3.136c1.876,0.863,3.728,0.104,8.409-1.104
					c2.159,0.308,7.921,3.063,8.574,4.323c0.655,1.259,0.938,2.783,1.287,4.193c-1.504,3.636-1.924,9.838-2.22,13.048
					c-0.758,8.205-3.269,10.87-6.517,17.196c-3.247,6.33-6.805,12.515-11.227,11.623c-4.425-0.896-8.736,1.233-5.459,3.835
					c3.274,2.602,7.557,3.81,11.394,1.093c1.684-1.195,4.899-2.713,8.455-4.707c5.488-3.082,10.694-9.925,13.299-12.907
					c0.695-0.797,4.668-4.294,7.395-8.947c2.538,1.647,5.415,2.789,8.615,3.103c7.17,0.704,14.695-3.471,22.125-3.186
					c2.078,2.458,4.666,4.326,7.008,5.66c5.81,3.311,13.442,6.915,15.873,9.94c2.558,3.184,3.278,15.558,1.893,16.957
					c-1.386,1.402-4.797,7.156,0.606,6.474c5.407-0.684,5.889-2.896,7.017-6.676c1.126-3.778,4.1-15.349,1.54-18.533
					c-2.556-3.184-6.096-6.114-6.369-11.277c-0.17-3.237,0.906-8.114,0.953-13.623c1.367-3.528,1.465-6.619,0.793-9.314
					c0.189,0.152,0.366,0.286,0.56,0.446c8.354,6.924,17.462,3.715,17.462,3.715c-5.115-0.152-6.592-4.211-6.592-4.211
					s6.592,4.211,16.844-4.373C237.896,323.191,233.24,307.692,233.24,307.692z"/>
				<path style="fill:#473D40;" d="M117.557,312.473c-0.256,0.81-1.12,1.259-1.931,1.003c-0.809-0.255-1.258-1.117-1.001-1.931
					c0.257-0.808,1.122-1.257,1.929-1C117.363,310.801,117.812,311.664,117.557,312.473z"/>
				<path style="fill:#C47442;" d="M128.744,307.313c0,0-1.951,4.77,3.643,9.02c5.591,4.256,15.463,10.951,19.753,7.35
					c4.29-3.601,8.297-8.235,0.404-11.664c-7.897-3.429-12.266-2.963-16.289-4.404C132.231,306.172,128.744,307.313,128.744,307.313
					z"/>
				<path style="fill:#473D40;" d="M93.346,312.411c0,0,3.891-2.266,3.299,0.416c-0.592,2.683-1.621,4.534-2.769,3.671
					C92.73,315.635,92.601,313.191,93.346,312.411"/>
				<g>
					<path style="fill:#1D3B92;" d="M121.152,331.254c0,0,4.329,0.18,9.56-3.428c5.232-3.608,7.036-6.674,7.036-6.674l3.969,2.345
						c0,0-0.361,5.413-6.315,8.84c-5.953,3.428-12.086,4.329-12.086,4.329L121.152,331.254"/>
					<g>
						<path style="fill:#D6B800;" d="M139.011,325.301c0,0.398-0.323,0.721-0.722,0.721c-0.398,0-0.721-0.323-0.721-0.721
							c0-0.399,0.323-0.722,0.721-0.722C138.688,324.58,139.011,324.902,139.011,325.301z"/>
						<path style="fill:#D6B800;" d="M135.403,328.909c0,0.398-0.323,0.722-0.721,0.722c-0.398,0-0.722-0.323-0.722-0.722
							c0-0.398,0.323-0.721,0.722-0.721C135.081,328.188,135.403,328.51,135.403,328.909z"/>
						<path style="fill:#D6B800;" d="M130.353,331.795c0,0.398-0.323,0.722-0.722,0.722c-0.398,0-0.721-0.323-0.721-0.722
							c0-0.398,0.323-0.721,0.721-0.721C130.029,331.074,130.353,331.397,130.353,331.795z"/>
						<path style="fill:#D6B800;" d="M125.301,333.418c0,0.398-0.323,0.722-0.721,0.722c-0.398,0-0.722-0.323-0.722-0.722
							c0-0.398,0.323-0.721,0.722-0.721C124.978,332.697,125.301,333.02,125.301,333.418z"/>
					</g>
				</g>
			</g>
		</g>
		<g>
			<g>
				<path style="fill:#4A602C;" d="M366.359,305.582c0,0,1.281-13.683,18.098-34.81c12.353-15.52,31.286-34.291,31.286-34.291
					l15.13,13.395c5.263,4.543,12.799,18.977,12.799,18.977s-2.089,7.522-5.592,13.403c-3.505,5.881-17.226,15.242-22.538,19.442
					c-9.226,7.294-18.803,21.708-18.803,21.708S371.27,317.181,366.359,305.582z"/>
				<g>
					<g>
						<path style="fill:#FFB68D;" d="M391.821,365.769l1.384,29.192c0,0-4.609,2.327-10.405,1.811
							c-5.794-0.52-8.472-4.761-8.472-4.761s1.297-14.483,0.31-22.033L391.821,365.769z"/>
						<g>
							<path style="fill:#81ACB3;" d="M394.113,391.466c1.137,0.332,1.132,7.06,1.22,9.484c0.083,2.42,2.47,9.921-1.36,11.874
								c-2.638,1.343-8.23,1.465-10.349,1.541c-2.121,0.072-4.268-1.939-6.7-2.154c-2.436-0.22-6.339,0.827-7.238,1.161
								c-0.896,0.338-4.956,4.127-15.28,2.985c-9.475-1.056-12.608-4.92-10.855-9.169c1.342-3.249,7.115-5.581,12.013-7.271
								c3.685-1.271,8.668-3.641,10.434-5.22c1.763-1.577,6.406-8.109,7.845-6.338c1.439,1.768,6.086,8.057,9.452,8.416
								c2.262,0.241,4.868-0.828,6.487-2.186C391.739,392.949,393.468,391.277,394.113,391.466z"/>
							<path style="fill:none;stroke:#375483;stroke-miterlimit:10;" d="M395.239,408.643c0,0-3.976,2.268-9.735,2.47
								c-5.751,0.203-9.314-2.516-13.211-1.165c-3.895,1.349-7.788,3.109-13.211,3.797c-6.643,0.839-11.928-2.917-11.928-2.917"/>
							<path style="fill:#6396B3;" d="M371.625,386.533c0,0,4.337,2.149,4.883,4.042c0.549,1.892-5.109,9.759-8.62,11.393
								c-3.515,1.639-10.548,2.198-12.45,0.042c-1.901-2.158,3.508-2.717,6.749-4.621
								C365.431,395.481,371.625,386.533,371.625,386.533z"/>
							<path style="fill:none;stroke:#A9D2E3;stroke-miterlimit:10;" d="M372.477,398.164c0,0-5.692-2.416-9.478-1.862"/>
							<path style="fill:none;stroke:#A9D2E3;stroke-miterlimit:10;" d="M367.889,401.967c0,0-0.834-6.22-1.652-8.382"/>
							<path style="fill:none;stroke:#A9D2E3;stroke-miterlimit:10;" d="M362.21,403.882c0,0,0.525-4.873-1.643-5.949"/>
							<path style="fill:none;stroke:#A9D2E3;stroke-miterlimit:10;" d="M365.456,403.06c0,0-4.074-4.046-7.319-3.768"/>
						</g>
					</g>
					<path style="fill:#4A602C;" d="M369.865,346.537c0.776,7.571,4.157,33.526,4.157,33.526s2.375,3.381,9.104,3.039
						c6.729-0.347,10.247-2.303,10.247-2.303s2.851-18.228,3.833-27.329c0.721-6.701,7.492-22.668,7.363-31.008
						c-0.154-9.61-3.662-20.365-3.662-20.365s-31.822-5.645-34.156,1.319C364.42,310.377,368.429,332.527,369.865,346.537z"/>
				</g>
			</g>
			<g>
				<path style="fill:#FAC4A8;" d="M380.633,183.288c0,0,5.671,6.216,8.048,6.602c2.374,0.385,5.795,0.238,5.795,0.238
					s1.091-13.011,1.93-18.056c0.838-5.044,1.347-17.711,5.164-24.778c3.818-7.066,10.735-8.82,15.023-5.998
					c4.285,2.822,1.677,19.266,0.152,31.391c-1.522,12.127-9.232,37.939-10.93,42.019c-1.695,4.08-14.193,0.149-18.05-3.16
					c-4.639-3.979-16.337-17.566-16.373-19.424C371.351,190.265,380.633,183.288,380.633,183.288z"/>
				<g>
					<path style="fill:#FAC4A8;" d="M375.736,169.936c0,0,0.12-4.593,2.785-5.143c2.666-0.549,3.173,0.26,2.595,3.824
						c-0.58,3.564-0.609,4.712,0.261,6.988c0.868,2.276,1.807,5.26-0.289,9.404c-2.096,4.143-7.934,9.515-12.666,7.977
						c-4.733-1.536-8.128-6.926-7.111-10.391c1.017-3.464,0.829-4.663,1.976-4.633c1.148,0.03,0.349-1.537,0.987-2.315
						c0.641-0.779,2.137-2.287,3.436-2.916c1.298-0.629,2.425-1.528,3.283-2.257C371.853,169.746,375.736,169.936,375.736,169.936z"
						/>
					<path style="fill:#FAC4A8;" d="M372.643,168.307c0.873,0.893,4.86,5.031,5.7,8.456c0.837,3.424-1.138,2.974-1.966,2.556
						c-0.83-0.419,1.207,2.815-0.797,3.514c-2.01,0.699-3.005,0.011-3.005,0.011s1.188,1.887-0.649,2.855
						c-1.838,0.969-3.226-0.04-3.226-0.04s2.506,2.186-0.987,2.316c-3.495,0.13-6.092-3.692-6.4-5.38
						c-0.31-1.686,0.09-3.444,0.969-3.245c0,0-0.755-2.095,0.375-3.686c1.13-1.591,2.577-0.493,2.577-0.493
						s-0.642-2.609,0.438-3.289c1.076-0.678,2.733,0.161,2.733,0.161s-0.786-2.643,0.765-3.369
						C370.722,167.95,371.766,167.417,372.643,168.307z"/>
					<path style="fill:none;stroke:#DC8C7A;stroke-miterlimit:10;" d="M376.024,179.523c0,0-6.174-5.313-7.238-6.709"/>
					<path style="fill:none;stroke:#DC8C7A;stroke-miterlimit:10;" d="M372.406,182.745c0,0-6.017-4.731-6.488-6.475"/>
					<path style="fill:none;stroke:#DC8C7A;stroke-miterlimit:10;" d="M368.7,185.66c0,0-5.035-3.42-5.852-5.753"/>
					<path style="fill:none;stroke:#DC8C7A;stroke-miterlimit:10;" d="M374.273,170.08c1.508,1.744,3.503,4.376,4.069,6.683
						c0.837,3.424-1.138,2.974-1.966,2.556c-0.83-0.419,1.207,2.815-0.797,3.514c-2.01,0.699-3.005,0.011-3.005,0.011
						s1.188,1.887-0.649,2.855c-1.838,0.969-3.226-0.04-3.226-0.04s2.506,2.186-0.987,2.316c-3.495,0.13-6.092-3.692-6.4-5.38"/>
				</g>
			</g>
			<g>
				<path style="fill:#4A602C;" d="M443.977,322.655c0,0-10.146-9.271-16.866-35.425c-4.936-19.211-8.498-45.634-8.498-45.634
					l19.807-3.996c6.798-1.46,22.858,1.229,22.858,1.229s4.74,6.2,7.321,12.54c2.581,6.34,1.778,22.933,1.926,29.703
					c0.258,11.758,5.987,28.088,5.987,28.088S456.189,325.728,443.977,322.655z"/>
				<g>
					<g>
						<path style="fill:#FFB68D;" d="M510.935,313.515l28.685,5.587c0,0,1.167,5.032-0.712,10.537c-1.88,5.506-6.632,7.1-6.632,7.1
							s-13.765-4.699-21.331-5.534L510.935,313.515z"/>
						<g>
							<path style="fill:#81ACB3;" d="M536.44,317.39c0.595-1.024,7.127,0.579,9.501,1.07c2.376,0.492,10.226-0.045,11.213,4.14
								c0.68,2.882-0.53,8.342-0.96,10.419c-0.431,2.079-2.894,3.685-3.683,5.995c-0.791,2.315-0.704,6.355-0.592,7.308
								c0.116,0.952,2.833,5.795-0.731,15.553c-3.27,8.953-7.769,11.078-11.479,8.367c-2.839-2.075-3.733-8.237-4.211-13.398
								c-0.359-3.88-1.476-9.284-2.592-11.372c-1.116-2.09-6.357-8.151-4.296-9.126c2.059-0.977,9.274-4,10.422-7.185
								c0.772-2.138,0.352-4.924-0.585-6.82C537.318,320.051,536.103,317.973,536.44,317.39z"/>
							<path style="fill:none;stroke:#375483;stroke-miterlimit:10;" d="M553.396,320.376c0,0,1.258,4.401,0.085,10.041
								c-1.167,5.637-4.653,8.452-4.267,12.558c0.385,4.105,1.173,8.305,0.55,13.735c-0.759,6.652-5.664,10.895-5.664,10.895"/>
							<path style="fill:#6396B3;" d="M526.309,338.064c0,0,3.117-3.703,5.088-3.784c1.969-0.083,8.266,7.279,9.019,11.081
								c0.755,3.8-0.368,10.767-2.915,12.1c-2.548,1.336-1.806-4.052-2.888-7.653C533.534,346.207,526.309,338.064,526.309,338.064z
								"/>
							<path style="fill:none;stroke:#A9D2E3;stroke-miterlimit:10;" d="M537.811,340c0,0-3.699,4.956-4.061,8.764"/>
							<path style="fill:none;stroke:#A9D2E3;stroke-miterlimit:10;" d="M540.415,345.36c0,0-6.24-0.669-8.534-0.386"/>
							<path style="fill:none;stroke:#A9D2E3;stroke-miterlimit:10;" d="M540.925,351.33c0,0-4.608-1.668-6.167,0.183"/>
							<path style="fill:none;stroke:#A9D2E3;stroke-miterlimit:10;" d="M540.899,347.982c0,0-4.898,2.996-5.397,6.214"/>
						</g>
					</g>
					<path style="fill:#4A602C;" d="M487.04,330.278c7.538,1.044,33.554,3.924,33.554,3.924s3.85-1.507,5.111-8.124
						c1.263-6.62,0.197-10.501,0.197-10.501s-17.029-7.097-25.638-10.211c-6.338-2.294-20.239-12.661-28.372-14.515
						c-9.374-2.134-20.652-1.281-20.652-1.281s-13.039,29.572-6.828,33.493C450.621,326.981,473.089,328.346,487.04,330.278z"/>
				</g>
				<path style="fill:none;stroke:#637C2C;stroke-miterlimit:10;" d="M428.364,289.302c0,0-6.951-18.989-7.469-25.462
					c-0.52-6.474-1.664-13.983-1.664-13.983"/>
			</g>
			<path style="fill:#72B53E;" d="M459.54,221.594l3.267,19.656c0,0-16.149,6.626-32.397,7.106
				c-16.244,0.481-21.513-1.954-24.066-2.557c-1.154-8.877-0.226-19.021-2.336-26.6c-3.947-14.179-5.179-38.044-3.185-56.012
				c1.996-17.969,11.024-24.136,11.024-24.136s18.219-7.783,23.464-7.683c5.245,0.101,10.294,2.482,16.198,7.325
				c5.906,4.843,12.026,25.035,11.065,36.986C462.064,182.007,459.54,221.594,459.54,221.594z"/>
			<path style="fill:#FFC4A8;" d="M411.234,127.584l2.968,11.133c0,0-9.984,20.074,4.26,16.822
				c8.805-2.01,15.58-20.421,15.58-20.421l-7.158-16.021L411.234,127.584z"/>
			<g>
				<path style="fill:#FFC4A8;" d="M402.074,91.554c-4.183,3.104-6.934,6.877-7.358,10.121c-0.426,3.245,1.517,4.935,1.344,6.956
					c-0.172,2.02-3.159,6.839-3.227,8.65c-0.111,2.98,4.801,2.492,5.308,4.491c0.505,2,1.374,7.825,6.377,9.886
					c5.81,2.393,18.001-4.129,22.954-12.449c4.953-8.323,0.613-22.015-4.086-25.935C418.686,89.352,406.255,88.45,402.074,91.554z"
					/>
				<g>
					<path style="fill:#412500;" d="M403.779,111.21c0.14,1.027-0.583,1.964-1.623,2.099c-1.038,0.132-1.996-0.59-2.14-1.617
						c-0.146-1.025,0.582-1.961,1.622-2.094C402.674,109.464,403.634,110.188,403.779,111.21z"/>
					<g>
						<g>
							<path style="fill:#9D4A2D;" d="M404.733,105.746c-1.199-0.036-2.39,0-3.587,0.065c-1.501,0.082-2.354,0.527-3.38,1.579
								c-0.136,0.139-0.037,0.373,0.156,0.376c0.406,0.008,0.796-0.124,1.174-0.259c0.775-0.276,1.53-0.385,2.347-0.438
								c1.099-0.07,2.195-0.119,3.292-0.213C405.438,106.795,405.458,105.768,404.733,105.746L404.733,105.746z"/>
						</g>
					</g>
				</g>
				<g>
					<g>
						<path style="fill:#DC807A;" d="M405.984,121.893c-1.189,1.897-3.428,2.993-5.621,3c-1.011,0.003-1.011,1.571,0,1.567
							c2.754-0.009,5.491-1.412,6.975-3.776C407.876,121.825,406.52,121.039,405.984,121.893L405.984,121.893z"/>
					</g>
				</g>
				<path style="fill:#9D4A2D;" d="M391.936,94.012c2.153-4.501,7.06-5.408,7.06-5.408s5.94-5.596,13.676-5.626
					c7.735-0.031,10.233,3.854,10.233,3.854s7.102-0.792,10.262,4.397c3.161,5.189,4.947,13.109,2.681,17.118
					c-2.264,4.009-4.977,8.187-5.741,9.728c-0.762,1.54-1.357,2.554-2.106,3.924c-0.75,1.372-3.775-3.971-4.589-5.653
					c-0.813-1.683-3.617-3.388-6.495-2.208c-2.875,1.187-3.692-7.362-3.692-7.362s-4.592-2.486-6.647-4.106
					c-2.057-1.616-9.193-2.278-9.193-2.278l-2.508,3.442C394.875,103.834,389.783,98.513,391.936,94.012z"/>
				<path style="fill:#FFC4A8;" d="M421.673,104.867c3.032,1.808,2.867,6.988,1.822,8.661c-1.044,1.675-4.207,3.413-4.207,3.413
					s-1.683-4.353-1.799-6.179C417.377,108.936,418.244,102.824,421.673,104.867z"/>
				<path style="fill:#9D4A2D;" d="M417.957,113.247c0,0,4.006,5.597,4.247,8.847c0.24,3.249-3.969,8.314-9.651,11.706
					c-5.683,3.391-6.465,3.747-9.141,0.381c-2.679-3.366-4.216-5.925-2.586-5.749c1.632,0.175,3.263,0.352,4.808-0.653
					c1.543-1.006,5.683-3.392,8.77-5.403c3.088-2.011,1.923-5.003,1.748-7.366C415.978,112.646,417.957,113.247,417.957,113.247z"/>
				<path style="fill:#9D4A2D;" d="M412.61,123.14c0,0-3.639-4.343-8.055-4.287c-4.417,0.056-7.105,1.069-6.965,2.958
					c0.141,1.889,3.337,0.295,5.537,0.132c2.198-0.163,4.576,2.103,6.855,3.019C412.262,125.879,412.61,123.14,412.61,123.14z"/>
			</g>
			<g>
				<path style="fill:#FAC4A8;" d="M471.856,175.457c0,0-3.634,3.601-5.853,7.67c-2.218,4.068-7.085,22.775-7.085,22.775
					l6.065,8.595c0,0,9.446-7.755,16.83-16.986c5.365-6.709,8.928-14.735,10.476-18.505c1.655-4.027,2.536-6.849,2.293-9.211
					c-0.298-2.89-1.926-5.717-6.236-8.585c-6.807-4.531-15.756-9.786-19.197-12.506c-3.439-2.719-15.42-12.785-24.335-11.039
					c-8.915,1.747-10.236,15.609-9.427,21.684c0.81,6.074,12.979,8.524,15.999,8.4c3.023-0.123,8.634,4.033,11.401,4.943
					C465.557,173.602,471.856,175.457,471.856,175.457z"/>
				<g>
					<path style="fill:#FAC4A8;" d="M458.318,204.89c0,0-7.098-0.501-10.866,0.261c-5.626,1.138-5.615,3.743-5.497,5.823
						c-1.351,2.512-2.65,2.307-3.046,4.726c-0.394,2.419-1.417,6.883-0.232,7.561c1.184,0.677,3.264,1.27,3.264,1.27
						s0.575,1.533,1.935,2.193c1.363,0.662,2.818-0.669,2.818-0.669s-0.575,2.436,1.146,3.063c1.721,0.625,3.147-0.902,3.147-0.902
						s-0.448,2.028,1.37,2.05c1.822,0.022,9.944-8.305,12.194-13.085C466.802,212.398,459.959,204.929,458.318,204.89z"/>
					<path style="fill:none;stroke:#DC8C7A;stroke-miterlimit:10;" d="M454.832,220.961c0,0-2.768,2.253-3.869,7.175"/>
					<path style="fill:none;stroke:#DC8C7A;stroke-miterlimit:10;" d="M444.209,208.718c0,0-3.457,2.863-4.708,5.748"/>
					<path style="fill:none;stroke:#DC8C7A;stroke-miterlimit:10;" d="M444.547,215.767c0,0-3.145,5.834-2.606,8.764"/>
					<path style="fill:none;stroke:#DC8C7A;stroke-miterlimit:10;" d="M449.648,217.809c0,0-3.123,4.885-3.198,8.8"/>
				</g>
			</g>
		</g>
		<g>
			<g>
				<path style="fill:#FACCBB;" d="M498.694,214.244c0,0,1.254,5.565,2.463,6.968c1.212,1.402,3.298,3.9,3.298,3.9
					s6.156-7.074,9.175-9.607c3.024-2.533,6.741-9.895,12.534-12.134c5.794-2.239,8.989,2.669,10.11,6.444
					c1.12,3.774-2.938,12.465-9.907,18.799c-6.969,6.336-18.684,14.464-24.345,15.572c-5.66,1.106-9.284-6.74-10.692-11.595
					c-1.407-4.854-0.957-17.118-0.957-17.118L498.694,214.244z"/>
				<g>
					<path style="fill:#FACCBB;" d="M502.483,204.009c0,0,1.842-1.395,2.725-0.511c0.886,0.884,0.359,1.996-0.429,3.664
						c-0.788,1.669-1.498,2.882-2.123,4.644c-0.627,1.761-1.182,4.94-4.496,6.324c-3.314,1.383-9.141,0.786-11.17-2.46
						c-2.028-3.245-1.706-9.889,0.632-11.408c2.336-1.521,2.823-2.316,3.486-1.73c0.663,0.586,0.977-0.726,1.744-0.865
						c0.766-0.139,2.404-0.276,3.488-0.002c1.081,0.275,2.197,0.309,3.069,0.308C500.284,201.973,502.483,204.009,502.483,204.009z"
						/>
					<path style="fill:#FACCBB;" d="M501.471,201.523c0.069,0.955,0.355,5.351-0.863,7.77c-1.219,2.417-2.162,1.175-2.441,0.521
						c-0.28-0.658-0.695,2.244-2.23,1.659c-1.539-0.587-1.78-1.483-1.78-1.483s-0.244,1.692-1.814,1.348
						c-1.57-0.345-1.887-1.622-1.887-1.622s0.389,2.521-1.744,0.865c-2.13-1.657-1.752-5.18-1.088-6.318
						c0.659-1.141,1.775-1.971,2.197-1.418c0,0,0.602-1.6,2.064-1.969c1.469-0.371,1.771,0.989,1.771,0.989s0.927-1.844,1.904-1.707
						c0.977,0.137,1.534,1.449,1.534,1.449s0.859-1.934,2.14-1.59C500.514,200.362,501.399,200.568,501.471,201.523z"/>
					<path style="fill:none;stroke:#DC8C7A;stroke-width:1.0207;stroke-miterlimit:10;" d="M497.855,209.757
						c0,0-0.992-6.167-0.92-7.511"/>
					<path style="fill:none;stroke:#DC8C7A;stroke-width:1.0207;stroke-miterlimit:10;" d="M494.104,209.847
						c0,0-1.188-5.748-0.596-7.001"/>
					<path style="fill:none;stroke:#DC8C7A;stroke-width:1.0207;stroke-miterlimit:10;" d="M490.454,209.715
						c0,0-1.263-4.495-0.581-6.266"/>
					<path style="fill:none;stroke:#DC8C7A;stroke-width:1.0207;stroke-miterlimit:10;" d="M501.547,203.369
						c0.018,1.767-0.118,4.294-0.939,5.924c-1.219,2.417-2.162,1.175-2.441,0.521c-0.28-0.658-0.695,2.244-2.23,1.659
						c-1.539-0.587-1.78-1.483-1.78-1.483s-0.244,1.692-1.814,1.348c-1.57-0.345-1.887-1.622-1.887-1.622s0.389,2.521-1.744,0.865
						c-2.13-1.657-1.752-5.18-1.088-6.318"/>
				</g>
			</g>
			<g>
				<g>
					<path style="fill:#FACCBB;" d="M626.975,373.522c-0.558-1.526-1.798-3.709-1.261-7.206c0.539-3.495,0.554-8.352-3.386-10.165
						c-3.936-1.814-16.913,1.148-16.913,1.148l-2.043,10.095c0,0,3.778,3.211,8.925,7.517c5.148,4.302,8.568,8.623,9.701,12.126
						c2.192,6.787,6.859,4.453,8.424,1.889C631.986,386.365,628.49,377.654,626.975,373.522z"/>
					<g>
						<g>
							<path style="fill:#B979B0;" d="M609.799,355.754c0.208-0.911,5.524-1.277,7.435-1.478c1.911-0.202,7.72-2.491,9.451,0.411
								c1.194,1.998,1.571,6.383,1.737,8.045c0.163,1.662-1.319,3.458-1.367,5.381c-0.052,1.925,0.969,4.934,1.278,5.621
								c0.313,0.686,3.51,3.664,3.12,11.838c-0.357,7.501-3.257,10.174-6.7,9.031c-2.634-0.875-4.771-5.28-6.35-9.033
								c-1.184-2.826-3.306-6.609-4.643-7.906c-1.338-1.299-6.73-4.587-5.402-5.813c1.323-1.228,6.067-5.228,6.181-7.892
								c0.079-1.789-0.896-3.777-2.053-4.974C611.09,357.54,609.681,356.273,609.799,355.754z"/>
							<path style="fill:none;stroke:#594596;stroke-miterlimit:10;" d="M623.32,353.923c0,0,1.988,2.998,2.435,7.509
								c0.449,4.508-1.521,7.457-0.259,10.441c1.262,2.986,2.85,5.947,3.662,10.17c0.995,5.17-0.246,10.782-0.246,10.782"/>
							<path style="fill:#796EA9;" d="M607.024,373.694c0,0,1.302-3.417,2.682-3.898c1.38-0.481,7.675,3.648,9.149,6.315
								c1.477,2.664,2.396,8.082,0.916,9.617c-1.482,1.536-2.284-2.627-3.943-5.072C614.17,378.207,607.024,373.694,607.024,373.694
								z"/>
							<path style="fill:none;stroke:#D4C2E8;stroke-miterlimit:10;" d="M616.174,372.383c0,0-1.624,4.604-0.997,7.547"/>
							<path style="fill:none;stroke:#D4C2E8;stroke-miterlimit:10;" d="M619.41,375.776c0,0-4.876,0.998-6.543,1.76"/>
							<path style="fill:none;stroke:#D4C2E8;stroke-miterlimit:10;" d="M621.204,380.13c0,0-3.877-0.144-4.616,1.617"/>
							<path style="fill:none;stroke:#D4C2E8;stroke-miterlimit:10;" d="M620.397,377.626c0,0-2.997,3.423-2.614,5.955"/>
						</g>
					</g>
				</g>
				<path style="fill:#524686;" d="M564.145,331.384c0.017-1.524-1.543-27.042,0.861-32.779c2.401-5.74,2.606-18.332-0.793-25.062
					c-3.393-6.73-14.263-18.121-14.263-18.121l-25.469,1.029c0,0,1.462,21.722,3.439,36.932
					c2.279,17.561,9.256,49.247,17.729,56.504C545.65,349.888,563.279,347.997,564.145,331.384z"/>
				<path style="fill:#524686;" d="M564.145,331.384c12.008,0.602,25.952,14.666,31.25,18.335
					c5.299,3.668,10.441,6.976,10.441,6.976s-0.749,7.713-1.019,11.889c-5.434-0.125-20.581-3.67-34.385-8.042
					c-10.939-3.464-19.79-5.397-24.782-10.654c-4.991-5.258-4.849-10.087-0.476-15.582
					C547.91,330.866,557.494,330.688,564.145,331.384z"/>
			</g>
			<g>
				<g>
					<path style="fill:#FACCBB;" d="M509.107,416.874c1.348-0.907,3.172-2.63,6.698-2.942c3.522-0.307,8.241-1.446,9.067-5.705
						c0.824-4.256-5.14-16.156-5.14-16.156l-10.291,0.417c0,0-2.221,4.436-5.178,10.459c-2.953,6.024-6.337,10.374-9.471,12.306
						c-6.069,3.743-2.692,7.724,0.172,8.631C497.825,424.796,505.452,419.326,509.107,416.874z"/>
					<g>
						<g>
							<path style="fill:#B979B0;" d="M522.278,395.961c0.933-0.017,2.556,5.061,3.203,6.866c0.651,1.81,4.257,6.907,1.851,9.281
								c-1.656,1.637-5.825,3.041-7.401,3.599c-1.573,0.558-3.669-0.458-5.551-0.049c-1.881,0.409-4.561,2.118-5.155,2.582
								c-0.591,0.467-2.724,4.279-10.758,5.848c-7.368,1.434-10.654-0.744-10.366-4.36c0.226-2.77,3.996-5.89,7.266-8.316
								c2.463-1.82,5.633-4.786,6.574-6.393c0.944-1.606,2.853-7.628,4.36-6.63c1.507,0.995,6.521,4.647,9.136,4.129
								c1.755-0.35,3.454-1.773,4.344-3.18C520.851,397.64,521.744,395.968,522.278,395.961z"/>
							<path style="fill:none;stroke:#594596;stroke-miterlimit:10;" d="M527.274,408.658c0,0-2.44,2.648-6.715,4.15
								c-4.271,1.512-7.603,0.299-10.203,2.236c-2.601,1.936-5.099,4.178-9.006,5.971c-4.783,2.202-10.529,2.331-10.529,2.331"/>
							<path style="fill:#796EA9;" d="M504.194,397.534c0,0,3.629,0.45,4.424,1.678c0.794,1.226-1.718,8.323-3.957,10.391
								c-2.237,2.065-7.279,4.249-9.124,3.174c-1.844-1.071,2.01-2.844,3.989-5.035C501.51,405.549,504.194,397.534,504.194,397.534
								z"/>
							<path style="fill:none;stroke:#D4C2E8;stroke-miterlimit:10;" d="M507.645,406.111c0,0-4.86-0.483-7.569,0.826"/>
							<path style="fill:none;stroke:#D4C2E8;stroke-miterlimit:10;" d="M505.118,410.06c0,0-2.129-4.498-3.266-5.938"/>
							<path style="fill:none;stroke:#D4C2E8;stroke-miterlimit:10;" d="M501.314,412.837c0,0-0.782-3.8-2.668-4.099"/>
							<path style="fill:none;stroke:#D4C2E8;stroke-miterlimit:10;" d="M503.557,411.458c0,0-4.04-2.097-6.407-1.122"/>
						</g>
					</g>
				</g>
				<path style="fill:#524686;" d="M546.129,265.591l-23.268-10.407c0,0-8.352,20.106-13.35,34.607
					c-5.768,16.742-12.218,41.441-7.855,51.71c0,0,11.869,8.253,20.035-6.241c0.693-1.357,14.099-20.821,18.8-24.891
					c4.704-4.072,11.543-13.386,11.964-20.654C552.877,282.449,546.129,265.591,546.129,265.591z"/>
				<path style="fill:#524686;" d="M524.654,342.236c4.662,11.082-1.97,29.744-2.98,36.108c-1.008,6.366-1.468,14.752-1.468,14.752
					s-6.549,0.184-11.264,0.153c-0.995-5.526-5.797-18.375-7.84-32.71c-1.62-11.359-3.04-22.184-0.463-28.961
					c2.573-6.776,6.311-6.731,13.158-5.171C521.131,328.076,522.237,335.489,524.654,342.236z"/>
			</g>
			<path style="fill:#FF7E77;" d="M521.93,247.722c0.051,3.337-4.223,19.117-4.223,19.117s14.945,6.64,26.322,4.468
				c11.376-2.17,13.475-3.711,15.538-7.002c-1.733-5.969-6.617-23.898-4.415-34.09c5.398-25.048-4.664-34.671-9.666-37.333
				c-5-2.661-16.547,2.293-20.053,6.887c-3.505,4.593-11.033,14.75-11.172,20.297c-0.125,4.91,3.327,7.72,5.886,13.351
				C522.296,238.144,521.85,242.808,521.93,247.722z"/>
			<path style="fill:#FACCBB;" d="M526.171,181.081l4.673,14.466c0,0-2.384,2.141-4.826,4.462c-2.443,2.322-3.739,6.46-3.739,6.46
				s4.23-2.277,8.458-4.554c4.229-2.277,15.681-7.35,15.681-7.35l-6.448-19.248L526.171,181.081z"/>
			<path style="fill:#FACCBB;" d="M517.305,156.06c0,0-1.755,3.22-2.859,6.999c-0.584,2.007-0.403,4.673-0.639,6.659
				c-0.233,1.984-3.882,3.779-4.011,5.561c-0.211,2.926,3.968,3.104,4.365,5.076c0.397,1.974,0.867,8.554,3.535,9.809
				c2.667,1.255,15.414-0.474,20.33-8.595c4.918-8.122,2.84-22.816-1.394-26.73C532.395,150.923,518.657,152.852,517.305,156.06z"/>
			<path style="fill:none;stroke:#DC8C7A;stroke-width:1.0207;stroke-miterlimit:10;" d="M529.24,188.487
				c0,0,6.023-2.517,8.016-5.768"/>
			<g>
				<path style="fill:#412500;" d="M521.929,169.394c0.063,1.046-0.73,1.949-1.778,2.013c-1.046,0.066-1.946-0.729-2.013-1.776
					c-0.065-1.047,0.729-1.947,1.777-2.012C520.962,167.554,521.862,168.349,521.929,169.394z"/>
				<g>
					<g>
						<path style="fill:#A76900;" d="M523.792,164.273c-0.911-0.555-1.884-0.981-2.919-1.246c-1.367-0.351-2.384,0.158-3.422,0.956
							c-0.132,0.101-0.147,0.341,0.051,0.386c1.006,0.225,2.016-0.355,3.047-0.165c0.921,0.171,1.854,0.603,2.706,0.986
							C523.868,165.466,524.389,164.636,523.792,164.273L523.792,164.273z"/>
					</g>
				</g>
			</g>
			<g>
				<g>
					<path style="fill:#DC8C7A;" d="M522.453,179.961c-2.005,1.166-4.431,2.221-6.786,2.11c-0.968-0.045-0.963,1.455,0,1.5
						c2.613,0.123,5.317-1.021,7.544-2.315C524.046,180.77,523.291,179.474,522.453,179.961L522.453,179.961z"/>
				</g>
			</g>
			<path style="fill:#A76900;" d="M520.968,146.887c-2.735,1.781-6.6,3.739-8.009,6.477c-1.585,3.076-0.513,6.925-0.002,8.49
				c0.712,2.184,6.403-1.297,9.563-4.41c0.14,0.238,2.752,6.075,5.349,9.752c3.287,4.656,6.31,7.721,6.823,11.897
				c0.404,3.316,3.603,5.551,6.863,5.362c3.262-0.189,6.633-2.172,8.232-3.592c1.598-1.421,9.828-13.049,2.292-26.266
				C544.544,141.381,526.779,143.104,520.968,146.887z"/>
			<path style="fill:#FACCBB;" d="M531.408,171.516c0,0,4.789-9.435,9.164-3.621c4.373,5.815-3.656,10.571-6.188,11.502
				C531.855,180.33,531.408,171.516,531.408,171.516z"/>
			<g>
				<path style="fill:#FACCBB;" d="M558.618,238.189c0,0-6.29,1.816-9.938,4.563c-3.645,2.746-16.652,8.392-16.652,8.392
					l2.959,9.612c0,0,31.67-6.138,38.775-10.546c7.104-4.408,4.081-12.176-2.045-19.309c-6.123-7.132-11.871-12.6-13.984-16.407
					c-2.113-3.81-9.985-12.512-14.212-13.037c-4.223-0.524-12.454,2.222-12.93,11.181c-0.315,5.971,6.142,10.543,8.93,11.827
					c2.788,1.283,8.172,2.798,10.372,4.721C552.093,231.107,558.618,238.189,558.618,238.189z"/>
				<g>
					<path style="fill:#FACCBB;" d="M534.409,251.323c0,0-5.438-2.564-8.554-3.656c-3.111-1.092-4.449,0.843-6.424,2.116
						c-1.977,1.273-2.914,0.673-4.11,2.218c-1.198,1.547-3.64,4.297-2.968,5.188c0.671,0.891,2.07,2.038,2.07,2.038
						s-0.116,1.271,0.7,2.213c0.816,0.941,2.305,0.926,2.305,0.926s-0.365,1.429,0.61,2.202c0.978,0.772,2.066,0.422,2.066,0.422
						s0.167,1.787,1.984,2.328c1.818,0.542,9.127-2.692,12.641-5.229C538.244,259.551,535.671,251.929,534.409,251.323z"/>
					<g>
						<path style="fill:none;stroke:#DC8C7A;stroke-miterlimit:10;" d="M520.701,265.202c0,0,3.672-1.559,4.814-3.396"/>
						<path style="fill:none;stroke:#DC8C7A;stroke-miterlimit:10;" d="M517.563,261.967c0,0,4.719-1.797,5.857-3.636"/>
						<path style="fill:none;stroke:#DC8C7A;stroke-miterlimit:10;" d="M514.424,259.227c0,0,5.648-2.289,6.839-4.548"/>
						<path style="fill:none;stroke:#DC8C7A;stroke-miterlimit:10;" d="M516.764,252.903c0,0,2.629-2.187,6.763-2.5"/>
					</g>
				</g>
			</g>
			<g>
				<path style="fill:#A76900;" d="M553.349,168.742c0,0,8.525-4.398,11.838,4.099c3.313,8.497,9.796,9.747,14.503,6.066
					c4.705-3.681,10.837-10.039,17.751-4.436c6.914,5.603,6.83,19.713,13.665,17.715c6.834-1.999,11.39,0.288,9.146,3.216
					c-2.971,3.876-9.55,12.786-18.751,11.738c-9.201-1.046-9.5-6.119-12.284-7.909c-2.901-1.866-6.927-1.821-11.099-1.095
					c-8.178,1.421-17.032-2.602-18.718-11.057c-1.687-8.456-7.521-13.76-7.521-13.76L553.349,168.742z"/>
				<path style="fill:#EA6077;" d="M555.163,165.26l-2.271,10.834c0,0,0.258,1.069,1.954,1.643c1.697,0.574,4.491-8.386,3.69-10.531
					C557.735,165.059,555.163,165.26,555.163,165.26z"/>
			</g>
			<path style="fill:none;stroke:#9584AC;stroke-miterlimit:10;" d="M534.935,318.351c0,0,21.029-21.096,23.152-30.745
				c2.395-10.883-0.974-19.532-0.974-19.532"/>
		</g>
	</g>
</g>
</svg>
